<svg width="440" height="440" xmlns="http://www.w3.org/2000/svg">
    <g fill="none" fill-rule="evenodd">
        <path d="M87 254.86c-1.185 1.98-2.37 3.963-3.556 5.942-.854-.305-1.38-.19-1.138.896l.07-.043c-2.157-.83-4.067.235-5.671 1.241-6.067 3.809-11.395 1.93-16.761-1.54-11.25-7.276-17.593-17.592-18.841-30.832-.602-6.37 1.381-11.894 7.578-15.158 5.845-3.078 11.614-6.3 19.084-10.366-6.837 23.104 1.031 38.68 19.235 49.86" fill="#9A9AFF"/>
        <path d="M69.922 207c-1.924-.3-2.447-1.346-1.371-2.75.641-.837 1.757-1.356 2.726-1.902 17.952-10.123 35.819-20.374 52.328-32.766 1.153-.866 2.587-2.613 3.96-.766 1.321 1.775-.681 2.74-1.844 3.622-16.974 12.902-35.473 23.412-54.054 33.788-.574.32-1.206.538-1.745.774" fill="#000091"/>
        <path d="M125 239.403c-5.642 2.916-11.269 5.79-15.289 11.08-1.661 2.185-3.187 2.181-3.647-1.146-.544-3.947-1.363-7.855-2.064-11.78 7.464-4.794 14.284-2.075 21 1.846M142.615 323.654c-3.637-.665-4.937 2.83-7.265 4.402-6.612 4.463-10.237 3.899-15.494-2.015-4.43-4.98-6.605-11.61-11.731-16.005-.042-1.397-.113-2.796-.119-4.197-.006-2.147-.249-4.342 3.159-3.737 2.553.453 3.554 1.051 3.117 3.972-.973 6.49.41 7.567 6.61 6.054.89-.216 1.831-.248 2.463-.801 6.669-5.845 14.793-4.728 22.675-3.658 1.999 1.991 2.472 4.498 2.343 7.21-1.151 1.645-3.633 5.72-4.528 7.342l-1.23 1.433zM106.83 294c-.82-4.26-4.138-6.945-1.309-10.12.955-1.073 4.696-1.329 5.208.167 1.177 3.43-1.733 5.941-3.9 9.953M104.343 268c1.928 4.409-1.736 7.4-2.097 12-4.9-5.572-.188-8.545 2.097-12" fill="#9A9AFF"/>
        <path d="M81.049 261.994c-.2-1.03.237-1.139.951-.85-.317.285-.634.567-.951.85" fill="#FAF2E0"/>
        <path d="M196.992 186.18c.235 10.127-4.638 16.479-11.586 21.639-2.712 2.012-4.965 1.372-6.766-1.304-7.523-11.174-14.256-22.734-18.206-35.815-1.105-3.664-.11-5.263 3.113-6.702 15.629-6.978 33.49 5.26 33.445 22.181" fill="#9A9AFF"/>
        <path d="M143.482 321.527c.01-.003.019-.008.029-.012l.008-.042-.037.054zM141.445 323.498c.04.005.072.002.11.005v-.005h-.11z" fill="#3665DB"/>
        <path d="M327.914 283.046a5.894 5.894 0 0 1-1.05-.886c-.673-.744-.622-1.796.071-2.482.65-.642 1.64-.658 2.428-.098 4.91 3.486 9.912 6.823 15.464 9.239 6.058 2.636 12.385 4.396 19.019 5.744-.546-1.087-1.06-2.027-1.498-3.001-1.967-4.378-3.093-8.997-3.822-13.715-.34-2.195-.641-4.404-.788-6.617-.05-.729.283-1.6.711-2.222 2.774-4.013 4.973-8.287 6.287-12.993 3.288-11.776 1.686-22.918-4.852-33.199-7.722-12.142-19.088-19.23-33.072-22.047-14.697-2.96-28.604-.607-41.263 7.564-10.19 6.577-17.223 15.616-19.87 27.568-3.017 13.625.444 25.772 9.458 36.285 8.252 9.627 18.954 15.045 31.434 17.064 8.87 1.434 17.593.72 26.156-1.976.263-.083.52-.186.946-.339-2.017-1.359-3.894-2.615-5.76-3.89zM261 241.778c.232-1.596.401-3.203.705-4.785 2.426-12.644 9.16-22.595 19.52-30.079 12.305-8.888 26.175-12.168 41.221-10.492 12.692 1.414 23.794 6.396 33.021 15.253 6.934 6.656 11.58 14.644 13.567 24.076.42 1.989.65 4.017.966 6.027v5.72c-.307 2.05-.535 4.115-.938 6.146-1.17 5.884-3.491 11.303-6.89 16.253-.567.825-.832 1.602-.708 2.635.771 6.43 1.786 12.81 4.785 18.647 1.002 1.95 2.488 3.653 3.751 5.47v1.059c-.813 1.245-1.291 1.455-2.735 1.192-1.429-.26-2.862-.49-4.283-.788-8.554-1.792-16.877-4.255-24.626-8.397-.389-.207-1.037-.184-1.47-.02a59.194 59.194 0 0 1-23.752 3.827c-13.563-.582-25.63-5.055-35.863-14.023-7.857-6.886-13.11-15.385-15.292-25.645-.431-2.027-.658-4.095-.979-6.144v-5.932z" fill="#000091"/>
        <path d="M312.274 237.2c.968.8 1.452 1.814 1.452 3.04 0 1.228-.309 2.254-.927 3.08-.618.827-1.546 1.294-2.783 1.4-.644.054-1.101.147-1.371.28-.268.134-.456.413-.565.84-.268 1.067-.307 1.987-.12 2.76.19.774.552 1.48 1.088 2.12a12.73 12.73 0 0 0 1.936 1.84c.753.587 1.56 1.2 2.42 1.84.215.159.322.347.322.56 0 .213-.053.4-.162.56-.106.16-.254.293-.443.4-.188.107-.363.107-.525 0a60.85 60.85 0 0 1-3.87-2.4c-1.183-.8-2.19-1.68-3.025-2.641-.832-.96-1.491-2.092-1.975-3.4-.484-1.305-.726-2.891-.726-4.759 0-.852.135-1.68.403-2.48.27-.8.659-1.52 1.169-2.16a5.681 5.681 0 0 1 1.855-1.52c.726-.373 1.573-.56 2.541-.56 1.237 0 2.338.4 3.306 1.2m14.275 0c.967.8 1.451 1.814 1.451 3.04 0 1.228-.309 2.254-.927 3.08-.618.827-1.545 1.294-2.782 1.4-.645.054-1.101.147-1.371.28-.268.134-.456.413-.564.84-.27 1.067-.31 1.987-.121 2.76.188.774.551 1.48 1.088 2.12a12.72 12.72 0 0 0 1.935 1.84c.754.587 1.56 1.2 2.42 1.84.216.159.322.347.322.56 0 .213-.052.4-.16.56-.108.16-.255.293-.444.4-.189.107-.363.107-.524 0-1.398-.8-2.688-1.6-3.872-2.4-1.182-.8-2.19-1.68-3.025-2.641-.832-.96-1.491-2.092-1.975-3.4-.484-1.305-.726-2.891-.726-4.759 0-.852.136-1.68.404-2.48.269-.8.659-1.52 1.169-2.16a5.67 5.67 0 0 1 1.855-1.52c.725-.373 1.573-.56 2.54-.56 1.238 0 2.34.4 3.307 1.2" fill="#9A9AFF"/>
        <path d="M378.955 187.537c.267.1.429.166.594.22 5.382 1.754 10.877 2.254 16.475 1.392 7.876-1.213 14.65-4.59 19.903-10.647 5.738-6.615 7.985-14.295 6.156-22.946-1.604-7.59-5.989-13.358-12.375-17.58-7.935-5.247-16.688-6.813-25.967-5.015-8.829 1.711-16.03 6.143-20.962 13.798-4.177 6.48-5.245 13.534-3.236 21.015.802 2.99 2.165 5.711 3.892 8.268.267.397.471.951.436 1.413-.104 1.403-.306 2.8-.531 4.19-.485 2.986-1.22 5.907-2.484 8.672-.28.615-.61 1.208-.96 1.895 4.189-.82 8.186-1.902 12.02-3.54 3.51-1.502 3.824-1.642 6.936-3.826.501-.351 1.125-.335 1.53.075a1.12 1.12 0 0 1 .033 1.574 3.756 3.756 0 0 1-.668.556c-1.182.797.485-.364-.792.486m46.013-24.472c-.213 1.296-.366 2.607-.65 3.888-1.43 6.492-4.786 11.85-9.774 16.173-6.499 5.63-14.128 8.4-22.68 8.696a37.111 37.111 0 0 1-14.949-2.552c-.272-.107-.68-.125-.927.005-4.907 2.584-10.166 4.1-15.566 5.19-.897.182-1.802.32-2.703.477-.913.158-1.213.023-1.719-.771l.006-.67c.807-1.145 1.752-2.218 2.394-3.448 1.922-3.683 2.596-7.721 3.116-11.793.083-.653-.08-1.147-.431-1.673-2.116-3.156-3.55-6.604-4.256-10.34-.244-1.288-.377-2.599-.56-3.9.011-1.207.022-2.416.031-3.625.212-1.272.367-2.556.642-3.815 1.304-5.967 4.274-11.005 8.68-15.187 5.863-5.564 12.887-8.663 20.894-9.49 9.492-.983 18.217 1.17 25.925 6.87 6.489 4.798 10.679 11.141 12.14 19.167.183 1.005.282 2.025.42 3.038l-.033 3.76" fill="#000091"/>
        <path d="M378.955 187.537c.267.1.429.166.594.22 5.382 1.754 10.877 2.254 16.475 1.392 7.876-1.213 14.65-4.59 19.903-10.647 5.738-6.615 7.985-14.295 6.156-22.946-1.604-7.59-5.989-13.358-12.375-17.58-7.935-5.247-16.688-6.813-25.967-5.015-8.829 1.711-16.03 6.143-20.962 13.798-4.177 6.48-5.245 13.534-3.236 21.015.802 2.99 2.165 5.711 3.892 8.268.267.397.471.951.436 1.413-.104 1.403-.306 2.8-.531 4.19-.485 2.986-1.22 5.907-2.484 8.672-.28.615-.61 1.208-.96 1.895 4.189-.82 8.186-1.902 12.02-3.54 3.51-1.502 3.824-1.642 6.936-3.826.501-.351 1.125-.335 1.53.075a1.12 1.12 0 0 1 .033 1.574 3.756 3.756 0 0 1-.668.556c-1.182.797.485-.364-.792.486zm46.013-24.472c-.213 1.296-.366 2.607-.65 3.888-1.43 6.492-4.786 11.85-9.774 16.173-6.499 5.63-14.128 8.4-22.68 8.696a37.111 37.111 0 0 1-14.949-2.552c-.272-.107-.68-.125-.927.005-4.907 2.584-10.166 4.1-15.566 5.19-.897.182-1.802.32-2.703.477-.913.158-1.213.023-1.719-.771l.006-.67c.807-1.145 1.752-2.218 2.394-3.448 1.922-3.683 2.596-7.721 3.116-11.793.083-.653-.08-1.147-.431-1.673-2.116-3.156-3.55-6.604-4.256-10.34-.244-1.288-.377-2.599-.56-3.9.011-1.207.022-2.416.031-3.625.212-1.272.367-2.556.642-3.815 1.304-5.967 4.274-11.005 8.68-15.187 5.863-5.564 12.887-8.663 20.894-9.49 9.492-.983 18.217 1.17 25.925 6.87 6.489 4.798 10.679 11.141 12.14 19.167.183 1.005.282 2.025.42 3.038l-.033 3.76z" stroke="#000091" stroke-width=".806"/>
        <path d="M387.035 167.557c.087-.704.336-1.212.75-1.524.413-.312.972-.423 1.675-.332.681.088 1.186.34 1.512.758.327.416.447.968.363 1.655-.082.66-.335 1.159-.76 1.49-.423.333-.97.456-1.643.37-.688-.09-1.198-.346-1.528-.768-.331-.42-.454-.971-.37-1.649zm.924-4.244.115-.93c.1-.805.354-1.482.765-2.034.41-.55 1.103-1.103 2.078-1.658.937-.517 1.566-.954 1.89-1.312.324-.358.516-.78.575-1.265.068-.545-.077-.985-.435-1.32-.358-.336-.89-.55-1.594-.64-1.229-.16-2.68.07-4.354.686l-.999-2.924c1.956-.81 3.958-1.083 6.006-.818 1.688.218 2.977.807 3.87 1.765.892.957 1.254 2.128 1.083 3.51-.114.92-.418 1.69-.911 2.307-.492.617-1.364 1.27-2.614 1.958-.86.493-1.414.88-1.661 1.164-.247.282-.402.675-.464 1.177l-.093.754-3.257-.42zM250.485 113.248c2.647.002 4.788-2.158 4.745-4.79-.042-2.572-2.18-4.699-4.728-4.704-2.614-.007-4.77 2.193-4.736 4.827a4.707 4.707 0 0 0 4.72 4.667m-.184 4.75c-5.224-.118-9.47-4.52-9.297-9.633.18-5.281 4.48-9.47 9.61-9.363 5.201.108 9.492 4.502 9.383 9.607-.113 5.307-4.452 9.508-9.696 9.389M315.497 113.244a4.706 4.706 0 0 0 4.737-4.647c.046-2.631-2.105-4.838-4.718-4.844-2.598-.005-4.791 2.222-4.751 4.825a4.736 4.736 0 0 0 4.732 4.666m.068 4.756c-5.192.038-9.442-4.133-9.563-9.385-.118-5.148 4.309-9.623 9.514-9.615 5.162.008 9.457 4.308 9.484 9.496.026 5.185-4.223 9.467-9.435 9.504M287.246 108.483c-.016-2.562-2.153-4.706-4.712-4.727-2.606-.022-4.798 2.18-4.78 4.8a4.718 4.718 0 0 0 4.713 4.688c2.669.015 4.795-2.104 4.779-4.761m-4.932 9.515c-5.252-.112-9.418-4.435-9.312-9.664.106-5.204 4.555-9.49 9.685-9.33 5.256.164 9.416 4.499 9.311 9.704-.105 5.236-4.448 9.402-9.684 9.29" fill="#9A9AFF"/>
        <path d="M263.434 170.406c4.883.76 16.973.744 22.084.524 17.68-.763 33.072-6.813 45.747-17.982 10.225-9.009 16.78-20.06 19.484-32.846.376-1.777.636-3.617.887-5.398.117-.835.235-1.67.364-2.504l-.005-7.585c-.09-.59-.176-1.244-.262-1.898-.182-1.38-.37-2.81-.634-4.195-3.01-15.766-11.379-28.73-24.875-38.53-15.312-11.12-33.002-15.65-52.587-13.453-16.402 1.836-30.573 8.415-42.118 19.557-9 8.684-14.814 19.058-17.283 30.833-.363 1.736-.62 3.533-.87 5.271-.117.828-.237 1.655-.366 2.482l.005 7.311c.12.77.234 1.604.348 2.438.244 1.78.497 3.622.85 5.406 1.47 7.437 4.423 14.437 8.773 20.806.845 1.24 1.139 2.344.979 3.69-.953 7.986-2.216 16.432-6.183 24.196-.899 1.757-2.103 3.374-3.268 4.936-.507.682-1.016 1.363-1.499 2.057v1.105c.91 1.376 1.358 1.548 3.006 1.246.558-.101 1.117-.2 1.675-.298 1.252-.222 2.547-.452 3.81-.717 12.794-2.694 22.796-6.123 31.48-10.789l7.01-4.265.978-.663a922.77 922.77 0 0 0 5.368-3.65c.538-.369.954-.72 1.273-1.076.698-.775.665-1.874-.077-2.613-.669-.665-1.7-.7-2.566-.081-7.045 5.03-13.127 8.99-19.916 11.96-7.114 3.114-14.894 5.477-24.485 7.438l-.859.175.391-.785c.226-.454.45-.888.664-1.311a53.83 53.83 0 0 0 1.249-2.544c2.255-5.044 3.804-10.631 4.872-17.581.387-2.512.808-5.485 1.007-8.498.051-.761-.278-1.78-.839-2.595-3.878-5.64-6.536-11.165-8.124-16.888-4.257-15.329-2.146-29.852 6.275-43.163 9.62-15.205 23.986-24.836 42.706-28.626 19.285-3.905 37.2-.602 53.257 9.815 13.77 8.934 22.408 20.989 25.677 35.826 3.814 17.314-.3 33.184-12.226 47.17-10.218 11.982-23.873 19.436-40.586 22.152-7.912 1.287-22.603 1.474-29.663.379-.844-.126-1.632.41-2.078.964-.488.608-.668 1.306-.468 1.823.246.635 1.015.881 1.618.974" fill="#000091"/>
        <path d="m334.411 287 4.59 2.834s-4.708 4.767-4.124 4.102c3.53-4.034-6.246-7.734-8.877-5.368l8.411-1.568z" fill="#FFF"/>
        <path d="M102.33 278.77c-4.163-4.608-.161-7.066 1.78-9.925 1.638 3.648-1.474 6.121-1.78 9.925m3.26 5.62c.886-.984 4.354-1.22 4.829.153 1.091 3.151-1.607 5.456-3.616 9.14-.76-3.913-3.837-6.378-1.214-9.293m.184-23.156c5.672-7.715 10.87-16.085 21.084-18.655 5.613-1.413 12.927 2.055 13.342 6.199.395 2.38-1.39 2.261-2.898 2.655-9.808 2.564-19.194 6.044-26.991 12.849-1.215 1.061-2.544 2.072-4.199 1.097-1.916-1.132-1.058-3.166-.338-4.145m38.66-1.176c.157 4.91-.31 7.475-4.6 8.2-8.891 1.501-16.944 5.275-24.665 9.933-2.417 1.457-6.046 4.213-8.269 1.424-1.855-2.329.19-6.11 2.148-8.57 7.67-9.642 18.594-13.63 30.04-16.108 4.432-.96 5.207 3.11 5.345 5.121m4.759 20.87c-.05 3.296.085 5.027-4.316 4.4-9.443-1.345-17.06 3.84-24.337 9.142-1.072.78-1.899 1.888-2.929 2.735-1.63 1.34-3.743 2.346-5.548 1.255-2.212-1.336-.734-3.621-.241-5.433 3.17-11.651 19.229-22.58 31.414-21.345 6.1.618 4.735 5.996 5.957 9.247M17.759 438.209c.477-1.417.462-2.302 1.268-4.624C26.58 411.815 37.97 392 49.516 372.24c8.896-15.228 18.876-29.9 24.078-47.644 4.788 5.2 9.414 9.869 16.355 10.576 1.818.185 4.733 1.174 5.102-1.524.366-2.68-2.534-1.653-4.075-1.943-10.86-2.048-19.517-13.379-20.581-26.88-.747-9.485 1.457-18.323 6.04-26.516 3.608-6.454 7.672-12.655 11.564-18.949 4.474-7.234 8.252-14.768 9.84-23.412 3.345 1.597 4.277 4.37 4.74 7.244 2.117 13.161-.91 24.89-9.82 35.021-1.295 1.472-5.09 2.82-2.94 4.965 2.346 2.344 3.886-1.565 5.763-2.768.553-.355 1.025-.834 2.258-1.856 4.845 13.065 10.48 25.458 4.73 39.456-.54 1.314-2.197 3.083-.063 4.039 2.44 1.093 2.772-1.535 3.493-2.968 1.424-2.828 2.154-5.886 2.37-9.055-.04-1.336-.112-2.673-.116-4.01-.006-2.05-.242-4.146 3.075-3.569 2.486.433 3.158 1.136 2.732 3.924-.947 6.197.891 7.61 6.927 6.167.867-.207 1.926-.243 2.541-.772 6.493-5.58 14.072-5.025 21.751-4.005 2.298-1.65 4.132-3.21-.599-3.755-3.815-.438-8.325 1.602-10.25-4.502-.684-2.168-2.672.715-3.513 2-3.13 4.784-7.347 7.563-13.225 7.824 1.37-10.671 15.02-22.028 24.98-20.901 1.234.14 2.635.786 3.53 1.644 5.843 5.597 6.461 17.962 1.353 24.576l-3.363 4.714c.09.955.131 1.89-1.015 2.282-.12.737-.241 1.475-1.23 1.387-3.895 10.596-8.848 20.461-19.117 26.393-4.802 2.774-10.048 3.728-15.588 2.917-1.215-.178-2.943-.904-3.369.904-.557 2.373 1.68 2.233 3.05 2.555 1.944.458 3.953.637 5.929.933.164.44.53.92.412 1.174-10.954 23.499-16.174 48.907-24.3 73.346-1.16 3.49-1.862 5.005-2.846 7.281-.797 1.842 2.494 1.783 3.042.746.803-1.517 1.53-3.13 2.334-5.131 2.748-6.848 4.82-13.982 6.922-21.069 5.29-17.827 9.794-35.92 18.043-52.724 1.249-2.546 2.342-5.045 5.412-6.485 8.098-3.796 14.127-9.994 18.276-17.92 3.432-6.558 6.878-13.085 11.124-19.182 3.962-5.69 5.314-12.227 2.499-18.555-4.435-9.971 2.849-22.163-6.24-31.09-.179-.177.154-.843.2-1.286 1.123-10.638-3.987-18.782-10.497-26.743 11.421-6.357 23.834-10.938 36.738-13.625 7.063-1.47 14.462-1.942 21.166 3.653 5.172 4.316 12.113 5.978 19.07 4.97 6.076-.879 11.824-2.687 13.887-9.582 5.873-4.064 6.492-10.633 6.748-16.656.363-8.53.193-16.739-1.557-24.414-.723-3.173-3.955-1.63-3.427.6 2.897 12.231 3.361 24.568-2.242 36.74-.652 1.418-.23 2.51.375 3.674-1.636-.465-2.915.114-4.138 1.265-6.6 6.223-14.106 6.004-21.918 2.862-2.278-.917-4.656-1.866-6.584-3.333-29.029-22.092-43.818-51.327-41.29-87.868 1.42-20.54 16.915-27.652 34.532-16.73 9.405 5.831 16.869 13.119 22.873 21.443.02.025.037.044.065.082 1.208 1.727 3.7.208 2.747-1.663-.2-.381-.274-.423-.64-.969-5.38-6.976-11.582-13.223-18.867-19.317-2.039-1.706-4.462-3.013-6.844-4.24-17.774-9.16-33.026-2.187-36.95 17.425-1.388 6.932-4.294 12.621-8.85 17.668-3.602 3.99-7.457 7.749-11.16 11.649-.999 1.051-3.19 2.03-1.938 3.69 1.697 2.25 3.143-.084 4.354-1.091 5.82-4.838 10.677-10.633 15.964-17.358 2.591 28.34 13.835 51.635 32.704 71.846-17.575 3.375-33.71 9.056-48.966 17.172-2.24 1.191-4.48 2.003-7.042 1.442-5.732 2.928-11.445 5.813-15.529 11.123-1.687 2.193-3.237 2.19-3.704-1.151-.554-3.962-1.385-7.885-2.096-11.825-1.13-1.056-2.228-2.152-3.4-3.163-4.717-4.073-5.235-3.444-7.322 2.471-2.343 6.64-6.91 12.427-8.138 19.593l-3.57 5.97-1.142.899.07-.044c-2.931 5.27-6.05 10.444-8.755 15.826-5.627 11.192-8.222 22.987-3.903 35.119 2.05 5.76 1.738 10.789-.404 16.202-10.34 26.124-27.966 48.189-40.083 74.137-.024-.035-.044-.067-.067-.103l-2.988 5.467-.123.141c-.078.38-.181.762-.343 1.147-3.638 8.67-7.556 17.222-10.223 26.26-.216.731-.95 3.413.915 3.413 1.863 0 2.52-1.7 2.52-1.7" fill="#000091"/>
    </g>
</svg>
