<svg width="72" height="72" xmlns="http://www.w3.org/2000/svg" xmlns:xlink="http://www.w3.org/1999/xlink">
    <defs>
        <path id="a" d="M0 0h66v68H0z"/>
    </defs>
    <g fill="none" fill-rule="evenodd">
        <g transform="translate(3 2)">
            <mask id="b" fill="#fff">
                <use xlink:href="#a"/>
            </mask>
            <path d="M7.21 43.05c1.146 0 2.293.013 3.439-.003 1.062-.015 1.804-.722 1.822-1.698.018-.991-.752-1.761-1.83-1.77-2.27-.015-4.541-.015-6.813.002-1.087.008-1.831.763-1.813 1.775.017.98.752 1.676 1.821 1.69 1.125.016 2.249.004 3.373.004zm.028-14.631c1.103 0 2.205.008 3.307-.002 1.144-.011 1.924-.727 1.925-1.743.002-1.023-.765-1.724-1.924-1.729-2.204-.009-4.41-.008-6.614 0-1.164.004-1.918.697-1.917 1.728.001 1.03.763 1.733 1.916 1.744 1.102.01 2.205.002 3.307.002zm.058 25.8v-.003c-1.102 0-2.207-.035-3.306.017-.44.021-.928.15-1.294.385-.61.392-.808 1.05-.634 1.752.18.725.66 1.274 1.42 1.287 2.51.045 5.02.032 7.531-.006.312-.005.674-.23.918-.457.529-.489.686-1.12.424-1.815-.292-.774-.89-1.138-1.687-1.154-1.123-.023-2.248-.006-3.372-.006zm-.12-40.445v.004c1.102 0 2.204.026 3.306-.014.403-.015.84-.113 1.192-.304.64-.348.922-1.148.748-1.832-.21-.826-.847-1.338-1.814-1.348-2.248-.024-4.497-.02-6.745.006a2.29 2.29 0 0 0-1.06.3c-.655.373-.935 1.188-.732 1.9.217.763.844 1.259 1.732 1.281 1.123.03 2.248.007 3.372.007zm56.8 22.846c-1.42 1.11-2.99 1.098-4.563 1.063v8.819c.642 0 1.254.044 1.857-.008 1.445-.126 2.665-1.354 2.694-2.801.047-2.296.012-4.594.012-7.073zm-4.548-9.968v9.038c.486 0 .923.006 1.36-.001 1.903-.034 3.185-1.323 3.194-3.233.011-2.08.004-4.16.002-6.241 0-.164-.02-.328-.037-.603-1.39 1.074-2.94 1.07-4.52 1.04zm0-16.014v13.969c.664 0 1.283.06 1.886-.012a2.981 2.981 0 0 0 2.662-2.973c.022-2.675.021-5.35 0-8.026-.011-1.453-1.085-2.746-2.473-2.942-.667-.094-1.357-.016-2.074-.016zM8.252 52.226c.868 0 1.661-.021 2.454.003 2.545.079 4.263 2.335 3.619 4.734-.443 1.65-1.889 2.71-3.776 2.75-.762.015-1.525.002-2.28.002-.118 2.654 1.902 5.438 4.553 5.984 1.72.354 3.526.292 5.361.422V15.413c0-.243-.014-.489.015-.729.07-.572.484-.916 1.05-.872.564.044.887.353.915.933.012.243.006.487.006.73v50.527H50.652c4.034-.002 6.723-2.688 6.738-6.727.005-1.062-.013-2.125.008-3.187.014-.69.398-1.083.992-1.087.593-.003.963.396.983 1.082.012.413.002.827.002 1.303.542 0 1.002.006 1.46-.002 1.866-.031 3.137-1.315 3.147-3.2.012-2.036.005-4.072 0-6.108 0-.16-.033-.318-.062-.574-1.37 1.117-2.94 1.035-4.552 1.036 0 .831.013 1.578-.004 2.324-.014.56-.372.853-.886.893-.545.042-.947-.215-1.048-.79-.049-.28-.037-.573-.037-.86-.002-13.79.002-27.578-.003-41.366-.002-4.057-2.687-6.746-6.718-6.746-9.906-.003-19.813 0-29.72 0h-.735c-.029.154-.043.197-.043.24-.003 2.368-.002 4.737-.008 7.105-.001.814-.328 1.198-.99 1.195-.652-.004-.99-.402-.991-1.208-.006-2.191-.003-4.382-.003-6.574v-.755c-1.309 0-2.54-.022-3.77.005-2.843.06-5.33 2.063-6.005 4.827-.11.453-.135.929-.215 1.509 1.108 0 2.083-.08 3.041.017 1.857.188 3.233 1.816 3.226 3.686-.007 2.064-1.626 3.666-3.782 3.725-.806.022-1.612.003-2.415.003v7.182c.652 0 1.265-.008 1.877.003.462.009.937-.017 1.384.077 1.827.386 3.08 2.103 2.927 3.951a3.735 3.735 0 0 1-3.6 3.42c-.854.028-1.71.005-2.586.005v7.177c.769 0 1.493-.004 2.217 0 2.296.012 3.972 1.58 3.978 3.722.006 2.145-1.663 3.726-3.95 3.738-.744.003-1.487 0-2.258 0v7.183zM13.537 0H52.06c.078.035.154.088.235.104 3.739.72 6.35 3.37 6.992 7.11.077.448.094.904.142 1.385.403 0 .734.017 1.062-.003C63.765 8.401 66.016 11.05 66 14.1c-.068 13.278-.028 26.557-.03 39.835 0 3.326-2.098 5.433-5.407 5.443h-1.161c-.021.316-.037.514-.047.712-.236 4.304-3.918 7.887-8.217 7.894-12.222.023-24.445.02-36.667.002-3.759-.006-7.042-2.626-7.97-6.292-.16-.634-.231-1.29-.351-1.979-.74 0-1.466.002-2.193 0-1.181-.003-2.222-.365-3.003-1.285-.987-1.164-1.226-2.496-.633-3.902.628-1.489 1.824-2.23 3.421-2.297.808-.033 1.618-.005 2.435-.005v-7.183c-.717 0-1.377.018-2.036-.005-.482-.018-.979-.025-1.438-.152-1.777-.491-2.892-2.234-2.655-4.07.226-1.75 1.732-3.148 3.511-3.22.873-.035 1.748-.006 2.62-.006v-7.18c-.805 0-1.56.06-2.302-.017-.645-.067-1.327-.18-1.899-.462-1.499-.739-2.246-2.485-1.86-4.086.407-1.69 1.794-2.843 3.507-2.887.852-.022 1.704-.003 2.571-.003v-7.187c-.825 0-1.614.02-2.401-.003-2.6-.073-4.35-2.425-3.613-4.842.487-1.596 1.89-2.599 3.723-2.641.762-.018 1.525-.003 2.22-.003.075-.126.093-.144.096-.164.011-.087.019-.175.026-.263.246-2.973 1.638-5.26 4.215-6.722C11.4.598 12.507.368 13.537 0z" fill="#000091" mask="url(#b)"/>
        </g>
        <path d="M35.767 29.965c-3.731-3.485-3.272-8.8-.222-11.73 3.15-3.024 7.973-2.971 11.031.108 2.991 3.012 3.293 8.222-.452 11.717.198.11.376.203.55.305 3.999 2.33 6.12 5.819 6.324 10.485.03.696-.285 1.087-.864 1.135-.602.05-1.016-.312-1.04-1.028-.09-2.704-1.016-5.05-2.875-7.002a9.654 9.654 0 0 0-4.209-2.614c-.49-.15-.94-.334-.998-.942-.056-.598.324-.87.785-1.123 2.48-1.364 3.674-4.153 2.964-6.87-.685-2.628-3.17-4.525-5.84-4.462-2.79.067-5.113 1.989-5.74 4.752-.581 2.561.657 5.25 2.998 6.586.31.176.646.464.768.78.223.572-.121 1.019-.866 1.251a9.946 9.946 0 0 0-4.83 3.252c-1.499 1.827-2.249 3.942-2.328 6.303-.016.463-.11.855-.585 1.047-.735.297-1.369-.21-1.337-1.104.117-3.294 1.286-6.15 3.656-8.425.948-.91 2.076-1.626 3.11-2.42M41.024 49.004h10.604c.192 0 .39-.017.577.017.549.098.812.456.794 1.023-.016.54-.295.88-.815.932-.424.043-.856.015-1.285.015-6.876 0-13.753-.001-20.629.004-.496 0-.96-.033-1.179-.584-.304-.765.177-1.403 1.072-1.405 3.106-.006 6.212-.002 9.318-.002h1.543M41.466 55.998c-2.42 0-4.84-.003-7.26.002-.534.001-.99-.107-1.157-.688-.188-.662.177-1.203.871-1.29.221-.026.447-.021.671-.021 4.616-.001 9.233-.002 13.85 0 .245 0 .494.001.736.036.593.084.845.466.821 1.027-.022.538-.31.89-.868.913-.806.032-1.613.02-2.42.02-1.748.003-3.496.002-5.244.001" fill="#9A9AFF"/>
    </g>
</svg>
