<svg width="440" height="440" xmlns="http://www.w3.org/2000/svg" xmlns:xlink="http://www.w3.org/1999/xlink">
    <defs>
        <path id="a" d="M0 0h276v260H0z"/>
    </defs>
    <g fill="none" fill-rule="evenodd">
        <g transform="translate(103 166)">
            <mask id="b" fill="#fff">
                <use xlink:href="#a"/>
            </mask>
            <path d="M275.944 5.667c.517-3.988-2.736-2.64-2.736-2.64s.104-.202.203-1.26c.077-.828-.111-1.4-.43-1.767.028.432-.005.874-.117 1.315 0 0-8.293 45.185-16.369 67.677-3.09 8.605-4.671 27.071-9.923 39.864-5.252 12.793-18.464 65.112-18.458 69.024.016 11.342-18.469 72.87-18.469 72.87-.586 2.313-3.29.705-5.602.118 0 0-68.903-13.618-88.068-19.408-31.686-9.572-107.862-28.796-107.862-28.796-1.668-.422-3.246-.415-3.562-1.996H.28c-.088.445-.135.694-.135.694-.613 2.322.76 5.824 3.088 6.413 0 0 37.836 7.778 44.821 11.267 3.682 1.84 78.57 21.952 88.046 23 9.474 1.045 71.078 17.887 71.078 17.887 2.313.586 6.847-2.567 7.433-4.88 0 0 22.077-77.611 25.435-98.174 1.153-7.058 10.004-46.232 13.139-56.829 3.944-13.339 18.087-72.47 22.758-92.869v-1.51z" fill="#EBF1FC" mask="url(#b)"/>
        </g>
        <path d="M141 401.2s-3.365.35-9 .6" stroke="#EBF1FC" stroke-width="4" stroke-linecap="round" stroke-linejoin="round"/>
        <path d="M117 402c-16.58-.387-38.955-2.902-58-12" stroke="#EBF1FC" stroke-width="4" stroke-linecap="round" stroke-linejoin="round" stroke-dasharray="16.672,14.29,16.672,14.29"/>
        <path d="M52.612 386c-4.593-2.647-8.898-5.74-12.765-9.345-33.988-31.694-45.275-68.191-20.421-124.8 17.926-40.828 49.208-45.155 70.83-36.824 20.107 7.747 26.455 29.042 15.248 46.952-11.208 17.91-41.047 21.491-62.375-8.397-19.735-27.654-25.19-69.146 27.9-104.586" stroke="#EBF1FC" stroke-width="4" stroke-linecap="round" stroke-linejoin="round" stroke-dasharray="16.672,14.29,16.672,14.29,16.672,14.29"/>
        <path d="M77 144a220.048 220.048 0 0 1 8-4" stroke="#EBF1FC" stroke-width="4" stroke-linecap="round" stroke-linejoin="round"/>
        <path d="M138 395.2s-3.365.35-9 .6" stroke="#FF6F4C" stroke-width="4" stroke-linecap="round" stroke-linejoin="round"/>
        <path d="M114 396c-16.58-.387-38.955-2.902-58-12" stroke="#9A9AFF" stroke-width="4" stroke-linecap="round" stroke-linejoin="round" stroke-dasharray="16.672,14.29,16.672,14.29"/>
        <path d="M48.612 380c-4.593-2.647-8.898-5.74-12.765-9.345-33.988-31.694-45.275-68.191-20.421-124.8 17.926-40.828 49.208-45.155 70.83-36.824 20.107 7.747 26.455 29.042 15.248 46.952-11.208 17.91-41.047 21.491-62.375-8.397-19.735-27.654-25.19-69.146 27.9-104.586" stroke="#9A9AFF" stroke-width="4" stroke-linecap="round" stroke-linejoin="round" stroke-dasharray="16.672,14.29,16.672,14.29,16.672,14.29"/>
        <path d="M74 139a220.048 220.048 0 0 1 8-4" stroke="#FF6F4C" stroke-width="4" stroke-linecap="round" stroke-linejoin="round"/>
        <path d="M89 138s3.031-1.001 8-3" stroke="#EBF1FC" stroke-width="5.664" stroke-linecap="round" stroke-linejoin="round"/>
        <path d="M111 130c13.478-5.175 31.156-13.182 46-24" stroke="#EBF1FC" stroke-width="5.664" stroke-linecap="round" stroke-linejoin="round" stroke-dasharray="14.522,12.447,14.522,12.447"/>
        <path d="M161.179 101.536c17.128-14.225 28.724-32.7 21.914-55.387-2.047-6.82-12.993-36.585-39.925-24.142-25.63 11.84-13.527 38.07-1.85 50.12C169.964 101.685 203.293 101.286 301 107" stroke="#EBF1FC" stroke-width="5.664" stroke-linecap="round" stroke-linejoin="round" stroke-dasharray="14.522,12.447,14.522,12.447,14.522,12.447"/>
        <path d="M308 108.26c2.945.155 5.945.315 9 .48" stroke="#EBF1FC" stroke-width="5.664" stroke-linecap="round" stroke-linejoin="round"/>
        <path d="M86 133s3.031-1.001 8-3" stroke="#FF6F4C" stroke-width="4" stroke-linecap="round" stroke-linejoin="round"/>
        <path d="M107 125c13.478-5.175 31.156-13.182 46-24" stroke="#9A9AFF" stroke-width="4" stroke-linecap="round" stroke-linejoin="round" stroke-dasharray="14.522,12.447,14.522,12.447"/>
        <path d="M158.179 96.536c17.128-14.225 28.724-32.7 21.914-55.387-2.047-6.82-12.993-36.585-39.925-24.142-25.63 11.84-13.527 38.07-1.85 50.12C166.964 96.685 200.293 96.286 298 102" stroke="#9A9AFF" stroke-width="4" stroke-linecap="round" stroke-linejoin="round" stroke-dasharray="14.522,12.447,14.522,12.447,14.522,12.447"/>
        <path d="M305 102.26c2.945.155 5.945.315 9 .48" stroke="#FF6F4C" stroke-width="4" stroke-linecap="round" stroke-linejoin="round"/>
        <path d="M126 396.14c.519-4.517 2.456-8.277 6.917-10.531 4.323-2.184 8.746-2.172 12.882.202 4.489 2.577 6.542 6.481 6.155 11.455-1.43 6.053-5.334 9.855-10.872 10.587-5.878.777-10.969-1.563-13.535-6.249-.937-1.708-1.37-3.557-1.547-5.465M86.473 146.222c-7.568 2.286-15.292-.64-17.099-6.478-1.807-5.84 3.105-12.525 10.992-14.957 7.477-2.305 15.457.645 17.232 6.37 1.874 6.048-2.964 12.6-11.125 15.065M330.988 104.002c-.342 4.427-7.872 7.425-17.453 6.948-9.628-.48-16.932-4.43-16.518-8.934.403-4.396 8.494-7.503 18.107-6.953 9.247.529 16.21 4.453 15.864 8.939" fill="#9A9AFF"/>
        <path d="M316.865 73.603V58.186h23.472l-.412.595c-.06.088-.115.171-.166.25a4.467 4.467 0 0 1-.368.51c-.597.682-1.197 1.36-1.798 2.041a395.6 395.6 0 0 0-2.377 2.704c-.986 1.135-.987 2.06-.004 3.191a599.9 599.9 0 0 0 2.823 3.224l1.724 1.963c.076.086.108.18.14.27l.263.669h-23.297zm3.361 29.932.049.425h-10.959l.064-.436c.38-2.585 2.75-4.535 5.55-4.467 2.682.037 5.009 2.004 5.296 4.478zm24.938-25.692c.838-.048 1.396-.412 1.655-1.084.313-.818.221-1.506-.285-2.102l-7.424-8.643.507-.607c.214-.256.415-.499.621-.738.553-.644 1.109-1.286 1.665-1.928 1.451-1.675 2.952-3.408 4.38-5.148.385-.471.647-1.158.65-1.71.004-.503-.129-.884-.406-1.163-.389-.39-1.072-.587-2.03-.588-6.056-.003-12.109-.003-18.164-.002h-9.592v-.38c0-.38.007-.738.015-1.085.013-.717.026-1.394-.031-2.046-.088-.998-.72-1.572-1.78-1.616a3.994 3.994 0 0 0-.16-.003c-.593 0-1.035.145-1.345.444-.402.384-.605 1.053-.605 1.99-.004 14.13-.008 28.262.011 42.393.002.873-.2 1.454-1.244 1.833-4.358 1.586-6.935 5.642-6.567 10.333.103 1.302.761 1.968 1.959 1.977 4.987.04 10.073.04 15.55.004 1.127-.007 1.894-.712 2-1.837.45-4.734-2.095-8.844-6.486-10.471-.942-.35-1.288-.846-1.28-1.83.025-3.368.023-6.735.02-10.103v-4.37c0-.229.021-.459.046-.722.013-.128.025-.266.037-.417l.026-.352 26.081.001c.715.003 1.456.009 2.176-.03z" fill="#9A9AFF"/>
        <path d="M299.983 220.005c.36 14.532-5.918 24.377-15.916 37.292-7.64 9.872-21.352 13.78-34.669 13.702-17.436-.103-33.847-6.235-42.965-20.999-4.812-7.791-7.556-20.483-7.429-30.522.118-9.235.71-15.818 4.104-23.846 3.499-8.281 14.522-15.965 22.457-20.362 7.49-4.15 16.16-6.465 25.47-6.257 9.398.21 22.209 5.986 29.975 11.166 13.586 9.059 19.349 21.868 18.973 39.826M284.843 373c-4.25-1.032-8.891-2.107-13.503-3.292a6751.406 6751.406 0 0 1-32.007-8.318c-10.399-2.726-20.77-5.555-31.186-8.218-11.778-3.01-23.604-5.836-35.385-8.842-6.308-1.61-12.553-3.457-18.843-5.137-3.063-.817-6.19-1.404-9.237-2.272-1.857-.529-3.271-1.818-3.619-3.79-.345-1.959.763-3.385 2.298-4.456 1.07-.746 2.22-.82 3.537-.481 12.117 3.118 24.261 6.13 36.375 9.26 9.724 2.515 19.403 5.203 29.128 7.717 9.384 2.425 18.815 4.674 28.2 7.096 10.492 2.71 20.95 5.552 31.434 8.286 4.691 1.223 9.421 2.3 14.122 3.495 2.386.605 4.044 2.748 3.823 4.776-.25 2.308-2.395 4.2-5.137 4.176M255.523 343.998c-3.41-.841-7.284-1.684-11.093-2.756-12.878-3.627-25.91-6.654-38.868-9.968-9.715-2.484-19.392-5.11-29.099-7.628A3969.09 3969.09 0 0 0 150.387 317c-2.182-.55-3.83-3.161-3.28-5.363.716-2.876 2.892-4.173 5.763-3.432 8.014 2.073 16.025 4.161 24.043 6.217 11.597 2.972 23.229 5.812 34.791 8.909 15.055 4.032 30.128 7.981 45.262 11.708 2.506.617 4.26 2.826 4.01 4.896-.297 2.47-2.335 4.13-5.453 4.063M230 311.51c-.001 3.299-2.29 5.11-5.63 4.296-4.178-1.018-8.323-2.171-12.485-3.262-10.013-2.627-20.017-5.292-30.045-7.865-8.334-2.14-16.69-4.193-25.046-6.24-3.392-.83-4.79-2.2-4.794-4.945-.005-3.43 2.32-5.161 5.85-4.256 7.403 1.9 14.786 3.881 22.19 5.78 15.06 3.86 30.132 7.68 45.195 11.532 3.606.923 4.766 2.165 4.765 4.96" fill="#EBF1FC"/>
        <path d="M162.424 271.016c5.312 1.344 11.06 2.794 16.805 4.257 11.413 2.904 22.823 5.814 34.233 8.725 3.358.858 5.048 3.03 4.402 5.632-.691 2.787-3.257 3.958-6.667 3.087-16.31-4.165-32.623-8.321-48.933-12.483-.76-.194-1.532-.369-2.263-.646-2.243-.851-3.366-2.893-2.895-5.173.45-2.182 2.436-3.582 5.318-3.399" fill="#9A9AFF"/>
        <path d="M298.97 329.295c-.01 3.685-2.369 5.39-6.193 4.452-6.7-1.643-13.369-3.405-20.065-5.062-10.351-2.56-20.629-5.396-31.062-7.654-1.98-.428-3.917-1.261-4.487-3.468-.918-3.56 2.168-6.339 5.998-5.367 11.357 2.88 22.691 5.843 34.054 8.707 6.091 1.536 12.242 2.856 18.32 4.436 1.976.513 3.719 1.608 3.434 3.956" fill="#EBF1FC"/>
        <path d="M214.356 244.994c-1.144-.311-1.663-2.657-1.17-3.73.143-.31 2.201-4.76 4.821-9.198 1.803-3.053 3.872-6.1 5.765-7.791 2.465-2.2 7.026-3.54 10.527-4.399 4.912-1.202 9.158-1.252 15.06.38 8.203 2.248 14.468 6.859 18.117 13.335.7 1.243 1.277 2.734 1.745 4.356 1.878 6.496 2.029 15.089 1.544 18.239a2.147 2.147 0 0 1-2.448 1.79c-1.182-.185-2.092-3.167-1.911-4.333.535-3.475.92-11.28-1.89-16.266-1.633-2.895-3.766-7.289-6.6-9.249-2.507-1.734-8.067-3.73-11.387-4.64-6.69-1.824-14.206-1.105-19.891 3.97-3.31 2.953-7.723 11.051-8.654 15.022-.239 1.023-1.96 2.968-3.628 2.514M265.524 194.5c-.337-1.007-1.387-2.214-2.826-3.651-.613-.611-2.297-2.742-5.713-3.61-3.251-.826-6.675-.817-9.533.426-1.773.772-4.33 2.719-5.665 4.122a14.096 14.096 0 0 0-3.447 6.187c-.935 3.586-.36 8.587 1.281 11.62 1.838 3.4 5.056 5.652 9.124 6.686 4.07 1.034 8.39.507 11.662-1.593 2.92-1.876 5.541-5.4 6.476-8.986.357-1.37.214-2.808.54-4.148.652-2.68 3.373-1.167 3.534.387.161 1.553-.16 2.786-.525 4.188-1.125 4.317-3.007 5.975-6.03 9.484-3.496 4.058-11.138 5.235-16.76 3.806a18.652 18.652 0 0 1-9.026-5.302c-1.804-1.918-3.063-5.669-3.915-8.145-1.133-3.286-.76-5.935.179-9.54 1.126-4.318 4.512-7.61 7.907-10.047 4.364-3.134 8.561-4.186 14.184-2.757 3.4.864 4.902 1.929 7.247 4.191 1.18 1.139 3.245 2.117 4.87 6.512.738 2.325-2.858 2.284-3.564.17" fill="#000091"/>
        <path d="M376.982 167.53c.28-2.988-2.836-2.743-3.442-.958-.008.026-.024.048-.033.074-2.211 11.472-9.002 45.29-15.647 63.782-3.094 8.61-4.68 27.087-9.938 39.887-5.26 12.8-18.49 65.147-18.484 69.063.015 11.347-18.496 72.91-18.496 72.91a4.324 4.324 0 0 1-5.254 3.127s-69.357-16.634-88.55-22.428c-31.73-9.577-108.417-27.46-108.417-27.46a4.321 4.321 0 0 1-3.13-5.251s31.698-114.168 32.093-120.177c.82-12.437 11.498-54.008 15.584-66.564 6.1-18.741 15.632-62.83 15.632-62.83a4.327 4.327 0 0 1 5.256-3.13s27.01 8.655 37.114 9.94c10.104 1.285 43.058 11.12 50.031 12.133 8.139 1.186 58.939 13.114 74.593 18.466 11.132 3.805 24.24 6.926 30.888 8.411 3.214.38 2.853-2.75.209-3.496-.005 0-.009-.003-.014-.005a173.814 173.814 0 0 1-12.655-3.535c-6.525-2.097-14.848-4.657-21.038-6.307-18.723-4.988-92.65-21.994-98.052-23.902-10.534-3.723-63.748-16.146-63.748-16.146a4.324 4.324 0 0 0-5.263 3.16l-9.125 37.173-14.886 60.635-.794 3.237-10.83 44.114s-12.99 56.004-18.97 71.786c-5.978 15.781-10.471 39.633-10.471 39.633a4.321 4.321 0 0 0 3.118 5.293s36.38 7.494 43.375 10.985c3.687 1.841 79.874 22.195 89.363 23.243 9.488 1.047 71.39 17.473 71.39 17.473a4.325 4.325 0 0 0 5.255-3.127s21.474-77.332 24.836-97.906c1.153-7.062 12.924-46.73 16.063-57.334 3.868-13.067 17.419-71.795 22.373-93.4.02-.156.042-.34.064-.57" fill="#000091"/>
        <path d="M400 248c0 23.748-19.252 43-43 43s-43-19.252-43-43 19.252-43 43-43 43 19.252 43 43" fill="#EBF1FC"/>
        <path d="M395.741 231.04c-5.817-15.174-18.5-22.876-33.56-24.116-6.359-.523-17.378-.347-25.49 4.37-19.594 11.6-26.266 30.204-17.943 51.208 4.568 11.533 16.825 20.652 28.129 24.356 8.791 2.883 15.975 2.189 25.162-1.258 20.523-7.701 31.788-33.473 23.702-54.56m5.029-2.81c6.217 15.562 5.078 29.833-2.891 43.12-2.796 4.663-1.264 10.252 1.902 13.826 11.217 12.66 20.57 24.174 31.648 36.96 3.867 4.462 10.513 7.811 6.128 12.496-4.4 4.703-11.005 4.56-15.797-.932-11.427-13.1-20.42-27.865-34.677-41.068-2.767-3.283-7.213-3.318-11.597-1.401-12.563 5.487-25.518 4.186-37.438-.176-12.197-4.466-19.153-13.093-24.928-24.562-10.01-19.88-1.023-48.835 18.776-60.49 22.669-13.342 50.856-7.125 64.945 14.433 1.764 2.7 2.934 5.79 3.929 7.793" fill="#EBF1FC"/>
        <path d="M400 241c0 23.748-19.252 43-43 43s-43-19.252-43-43 19.252-43 43-43 43 19.252 43 43" fill="#FFF"/>
        <path d="M395.741 224.04c-5.817-15.174-18.5-22.876-33.56-24.116-6.359-.523-17.378-.347-25.49 4.37-19.594 11.6-26.266 30.204-17.943 51.208 4.568 11.533 16.825 20.652 28.129 24.356 8.791 2.883 15.975 2.189 25.162-1.258 20.523-7.701 31.788-33.473 23.702-54.56m5.029-2.81c6.217 15.562 5.078 29.833-2.891 43.12-2.796 4.663-1.264 10.252 1.902 13.826 11.217 12.66 20.57 24.174 31.648 36.96 3.867 4.462 10.513 7.811 6.128 12.496-4.4 4.703-11.005 4.56-15.797-.932-11.427-13.1-20.42-27.865-34.677-41.068-2.767-3.283-7.213-3.318-11.597-1.401-12.563 5.487-25.518 4.186-37.438-.176-12.197-4.466-19.153-13.093-24.928-24.562-10.01-19.88-1.023-48.835 18.776-60.49 22.669-13.342 50.856-7.125 64.945 14.433 1.764 2.7 2.934 5.79 3.929 7.793" fill="#9A9AFF"/>
    </g>
</svg>
