<svg width="80" height="80" viewBox="0 0 80 80" fill="none" xmlns="http://www.w3.org/2000/svg">
<path d="M58.1261 6.6665C58.6321 6.91068 59.183 7.09381 59.6373 7.41259C60.7257 8.1745 61.2204 9.28233 61.2339 10.6027C61.2474 12.027 61.2361 13.4536 61.2361 14.9548C63.0149 14.9548 64.7127 14.9435 66.4128 14.9571C68.331 14.9752 69.8242 16.2413 70.157 18.1178C70.211 18.4207 70.211 18.735 70.211 19.0447C70.2133 33.6748 70.2133 48.3049 70.211 62.9349C70.211 63.1497 70.2335 63.3736 70.1795 63.577C70.0378 64.1242 69.6825 64.4362 69.1001 64.4181C68.5514 64.4 68.2231 64.0789 68.1084 63.5612C68.0522 63.3102 68.0792 63.0389 68.0792 62.7767C68.0792 48.2891 68.0792 33.8037 68.0792 19.3161C68.0792 17.6068 67.5799 17.1027 65.8799 17.1027C64.3664 17.1027 62.853 17.1027 61.2384 17.1027C61.2384 17.6385 61.2429 18.1291 61.2384 18.6197C61.2092 20.9326 59.5653 22.6395 57.3907 22.6214C55.2387 22.6034 53.6285 20.9122 53.5993 18.6355C53.5925 18.1607 53.5993 17.686 53.5993 17.1569C50.9435 17.1569 48.3259 17.1569 45.5982 17.1569C45.5982 17.6294 45.6026 18.1178 45.5982 18.6084C45.5712 20.9258 43.9386 22.6305 41.7617 22.6214C39.5849 22.6124 37.9771 20.9032 37.9568 18.5767C37.9523 18.1246 37.9568 17.6724 37.9568 17.1614C35.31 17.1614 32.6924 17.1614 29.9579 17.1614C29.9579 17.6204 29.9624 18.1087 29.9579 18.5971C29.9309 20.9213 28.3096 22.626 26.1328 22.6237C23.9559 22.6214 22.3391 20.9122 22.3166 18.5903C22.3121 18.1201 22.3166 17.6475 22.3166 17.123C20.4501 17.123 18.6556 17.0868 16.8633 17.1388C16.0357 17.1637 15.4871 17.9053 15.4803 18.8458C15.4668 20.4917 15.4781 22.1399 15.4758 23.7858C15.4736 24.6901 15.0958 25.1694 14.4031 25.1649C13.7128 25.1604 13.3462 24.6856 13.3462 23.77C13.344 22.1467 13.3395 20.5234 13.3462 18.9023C13.3575 16.551 14.9383 14.9684 17.2861 14.9571C18.9367 14.9481 20.5895 14.9548 22.3188 14.9548C22.3188 13.7385 22.3188 12.599 22.3188 11.4618C22.3188 8.63798 22.9148 7.71781 25.4311 6.6665C25.9056 6.6665 26.3801 6.6665 26.8524 6.6665C29.3687 7.72911 29.9602 8.64476 29.9602 11.4641C29.9602 12.6035 29.9602 13.7408 29.9602 14.9164C32.6542 14.9164 35.2695 14.9164 37.9613 14.9164C37.9613 13.4536 37.9523 12.027 37.9636 10.6027C37.9748 9.28233 38.4695 8.1745 39.5602 7.41485C40.0167 7.09607 40.5631 6.91294 41.0714 6.6665C41.5459 6.6665 42.0204 6.6665 42.4926 6.6665C45.0067 7.72459 45.6026 8.6425 45.6026 11.4618C45.6026 12.6013 45.6026 13.7385 45.6026 14.9164C48.2944 14.9164 50.9098 14.9164 53.6038 14.9164C53.6038 13.4536 53.5925 12.0293 53.606 10.6049C53.6173 9.28459 54.112 8.17676 55.2004 7.41485C55.6569 7.09607 56.2034 6.91294 56.7094 6.6665C57.1793 6.6665 57.6538 6.6665 58.1261 6.6665ZM27.8216 14.6858C27.8216 13.3745 27.8306 12.0655 27.8193 10.7542C27.8081 9.57624 27.1042 8.7985 26.0968 8.82111C25.1163 8.84372 24.4529 9.60563 24.4484 10.7564C24.4394 13.3541 24.4394 15.9496 24.4484 18.5474C24.4529 19.714 25.0983 20.451 26.0968 20.4714C27.129 20.4917 27.8081 19.7434 27.8193 18.5474C27.8306 17.2587 27.8216 15.9722 27.8216 14.6858ZM43.4641 14.6496C43.4641 13.3632 43.4708 12.0768 43.4618 10.7903C43.4528 9.59659 42.7804 8.82111 41.7752 8.82111C40.77 8.82111 40.0932 9.59885 40.0887 10.7926C40.0819 13.3655 40.0819 15.9383 40.0887 18.5112C40.0932 19.723 40.7475 20.4714 41.773 20.4691C42.8007 20.4691 43.4506 19.723 43.4596 18.5089C43.4708 17.2225 43.4641 15.9361 43.4641 14.6496ZM55.7289 14.6135C55.7289 15.9248 55.7199 17.2338 55.7311 18.5451C55.7424 19.7411 56.4193 20.4894 57.4514 20.4691C58.4499 20.451 59.0975 19.714 59.102 18.5474C59.111 15.9519 59.111 13.3541 59.102 10.7587C59.0975 9.60563 58.4342 8.84598 57.4537 8.82337C56.4462 8.80076 55.7424 9.58076 55.7311 10.7564C55.7199 12.0406 55.7289 13.327 55.7289 14.6135Z" fill="#000091"/>
<path d="M16.3237 80C16.2248 79.948 16.1303 79.8802 16.0269 79.844C14.2953 79.2246 13.3441 77.8974 13.3396 76.0526C13.3328 71.5648 13.3373 67.0792 13.3373 62.5914C13.3373 51.6601 13.3373 40.7311 13.3373 29.7998C13.3373 29.5601 13.3238 29.3205 13.3463 29.0831C13.4025 28.4749 13.859 28.0431 14.4167 28.0499C14.9744 28.0567 15.4129 28.4908 15.4647 29.108C15.4849 29.3454 15.4714 29.585 15.4714 29.8247C15.4714 45.0742 15.4714 60.326 15.4714 75.5755C15.4714 77.3345 15.9751 77.85 17.691 77.85C33.754 77.85 49.817 77.85 65.88 77.85C67.5531 77.85 68.077 77.3187 68.0793 75.6253C68.0793 73.3101 68.077 70.995 68.0815 68.6799C68.0838 67.7981 68.4953 67.2962 69.1789 67.3188C69.8311 67.3415 70.2089 67.8275 70.2111 68.6776C70.2156 71.0651 70.2134 73.4503 70.2111 75.8378C70.2089 77.9517 69.3566 79.1658 67.3844 79.8757C67.3237 79.8983 67.2787 79.9571 67.227 80C50.26 80 33.293 80 16.3237 80Z" fill="#000091"/>
<path d="M48.0965 53.1205C44.4265 53.1205 40.7565 53.1295 37.0888 53.1159C35.2268 53.1092 33.9248 52.0307 33.6144 50.2921C33.3086 48.5829 34.4847 46.8285 36.178 46.4916C36.5243 46.4238 36.8819 46.3944 37.235 46.3944C44.503 46.3899 51.771 46.3876 59.0391 46.3921C61.2271 46.3944 62.7068 47.7893 62.6933 49.8015C62.6798 51.6147 61.3081 53.0639 59.4596 53.1024C57.0691 53.1499 54.6787 53.1205 52.286 53.1227C50.8895 53.1205 49.493 53.1205 48.0965 53.1205ZM48.1033 50.9726C51.6586 50.9726 55.2117 50.9726 58.767 50.9726C59.0278 50.9726 59.2909 50.9839 59.5473 50.9432C60.1657 50.8438 60.5165 50.4594 60.5525 49.8309C60.5862 49.2024 60.2781 48.7773 59.6755 48.6123C59.4281 48.5445 59.1605 48.5399 58.9019 48.5399C51.7216 48.5354 44.5412 48.5354 37.3609 48.5399C37.0798 48.5399 36.7852 48.5512 36.5198 48.6349C35.9532 48.8135 35.6698 49.2612 35.708 49.8377C35.7463 50.4097 36.0723 50.8212 36.6615 50.9297C36.9381 50.9817 37.2282 50.9704 37.5116 50.9704C41.0421 50.9726 44.5727 50.9726 48.1033 50.9726Z" fill="#6A6AF4"/>
<path d="M48.1389 67.348C44.4689 67.348 40.7989 67.357 37.1311 67.3435C35.2332 67.3367 33.9154 66.2424 33.6073 64.4744C33.297 62.6838 34.6215 60.8751 36.4138 60.6581C36.6724 60.6264 36.9332 60.6174 37.1941 60.6174C44.4869 60.6151 51.7774 60.6128 59.0702 60.6174C60.858 60.6196 62.0858 61.4652 62.5558 62.9822C63.1562 64.9198 61.9171 66.9501 59.927 67.2711C59.5784 67.3276 59.2209 67.3435 58.8678 67.3435C55.2878 67.3502 51.7144 67.348 48.1389 67.348ZM48.1839 62.7652C44.4869 62.7652 40.7899 62.7607 37.0929 62.7697C36.2361 62.772 35.7009 63.2513 35.6942 63.9612C35.6874 64.6688 36.2294 65.1572 37.0682 65.1979C37.1874 65.2024 37.3043 65.2002 37.4235 65.2002C44.5566 65.2002 51.6897 65.2002 58.8228 65.1956C59.1287 65.1956 59.448 65.1911 59.7358 65.1052C60.2688 64.9492 60.6398 64.5332 60.5274 63.9928C60.4419 63.5836 60.1316 63.1699 59.81 62.8828C59.6256 62.7154 59.2231 62.7697 58.9173 62.7697C55.3395 62.7629 51.7617 62.7652 48.1839 62.7652Z" fill="#6A6AF4"/>
<path d="M48.0939 38.9061C44.3519 38.9061 40.6122 38.9287 36.8703 38.8971C34.644 38.879 33.1193 36.8126 33.6793 34.6625C34.0706 33.1658 35.4041 32.1823 37.0907 32.1801C40.8326 32.1733 44.5723 32.1778 48.3143 32.1778C51.9843 32.1778 55.6543 32.1665 59.3243 32.1846C60.9546 32.1936 62.2702 33.2675 62.6255 34.8095C62.965 36.2835 62.2634 37.8842 60.8782 38.5218C60.3205 38.7795 59.6504 38.8903 59.0297 38.8948C55.3844 38.9287 51.7369 38.9107 48.0917 38.9107C48.0939 38.9084 48.0939 38.9084 48.0939 38.9061ZM48.1366 36.7628C49.6276 36.7628 51.1185 36.7628 52.6094 36.7628C54.8335 36.7628 57.0598 36.7719 59.2838 36.7561C60.0529 36.7515 60.5296 36.2926 60.5566 35.6053C60.5836 34.8908 60.0934 34.3867 59.3175 34.3324C59.1534 34.3211 58.987 34.3279 58.8206 34.3279C51.6964 34.3279 44.5723 34.3279 37.4482 34.3301C37.1896 34.3301 36.922 34.3166 36.6724 34.3731C35.8741 34.5495 35.4715 35.3792 35.8313 36.0868C36.1169 36.6521 36.6184 36.7696 37.2031 36.7696C40.8461 36.7561 44.4914 36.7628 48.1366 36.7628Z" fill="#6A6AF4"/>
<path d="M25.0964 35.4448C26.8707 33.297 28.6248 31.1717 30.3788 29.0488C30.4845 28.9199 30.5812 28.7843 30.6937 28.6622C31.1546 28.1648 31.7438 28.0857 32.2093 28.4519C32.7018 28.8385 32.7715 29.4761 32.3263 30.0323C31.3908 31.2011 30.426 32.3451 29.4726 33.5004C28.2942 34.9293 27.1181 36.3649 25.933 37.7893C25.1886 38.6823 24.4578 38.6281 23.8461 37.6423C23.2569 36.6928 22.6745 35.7409 22.1011 34.7823C21.694 34.1018 21.7795 33.4937 22.3102 33.1477C22.8657 32.786 23.4751 32.9804 23.9158 33.6677C24.2734 34.2284 24.622 34.7936 24.975 35.3589C24.9885 35.3747 25.0132 35.3837 25.0964 35.4448Z" fill="#6A6AF4"/>
<path d="M25.0514 49.6776C26.8617 47.4846 28.6292 45.3435 30.399 43.2025C30.5497 43.0193 30.6891 42.8181 30.8712 42.6712C31.312 42.3117 31.7932 42.2913 32.2317 42.6576C32.6725 43.0239 32.74 43.5032 32.4701 44.0073C32.3599 44.2131 32.1935 44.3917 32.0428 44.5748C30.0324 47.012 28.0198 49.4515 26.0049 51.8842C25.1706 52.8903 24.4757 52.8405 23.7921 51.7327C23.2186 50.8012 22.6429 49.872 22.083 48.9338C21.685 48.2646 21.7952 47.6406 22.3394 47.3082C22.8858 46.9759 23.475 47.1612 23.8933 47.8169C24.2778 48.4138 24.6466 49.0219 25.0514 49.6776Z" fill="#6A6AF4"/>
<path d="M25.0537 63.9501C26.8055 61.8294 28.5146 59.7585 30.2237 57.6898C30.4058 57.4705 30.5767 57.2399 30.7791 57.0386C31.2356 56.5797 31.7888 56.5458 32.2408 56.9279C32.6816 57.3009 32.7648 57.891 32.3915 58.4019C32.0137 58.9197 31.5864 59.399 31.1771 59.8941C29.4681 61.9673 27.7635 64.0428 26.0499 66.1093C25.1459 67.2013 24.4915 67.147 23.7495 65.9352C23.2277 65.0828 22.706 64.2327 22.1888 63.3781C21.6963 62.5665 21.757 61.9312 22.3552 61.5694C22.9511 61.21 23.5021 61.4451 24.0171 62.2748C24.3499 62.8197 24.6872 63.36 25.0537 63.9501Z" fill="#6A6AF4"/>
</svg>
