<svg width="80" height="80" viewBox="0 0 80 80" fill="none" xmlns="http://www.w3.org/2000/svg">
<path d="M24.9096 15.231C24.0378 14.8253 23.2375 14.4672 22.4467 14.0853C21.601 13.6724 21.2914 12.9707 21.6153 12.2618C21.9441 11.5481 22.6753 11.3023 23.5257 11.6818C25.1574 12.405 26.7819 13.1449 28.3969 13.9039C29.3806 14.367 29.6045 14.9971 29.1424 15.9948C28.3468 17.7086 27.5274 19.4127 26.6985 21.1122C26.284 21.9643 25.5885 22.2602 24.8691 21.9404C24.1426 21.6158 23.9306 20.8401 24.3308 19.9379C24.5523 19.4414 24.7881 18.9521 25.0144 18.458C25.024 18.4389 25.0097 18.4103 24.9739 18.1239C23.3232 19.4199 21.6797 20.5322 20.2457 21.8664C14.3812 27.3323 11.2704 34.1132 10.863 42.133C10.844 42.522 10.8368 42.9111 10.8035 43.2978C10.7296 44.1403 10.2294 44.6368 9.4791 44.6296C8.75021 44.6225 8.17853 44.0902 8.18092 43.2667C8.18092 42.2046 8.23332 41.1377 8.35242 40.0827C9.29092 31.6715 12.9258 24.6495 19.3358 19.1335C20.8579 17.8231 22.6182 16.7944 24.2689 15.6368C24.4594 15.5103 24.6571 15.3933 24.9096 15.231Z" fill="#6A6AF4"/>
<path d="M56.3155 15.231C57.1873 14.8253 57.9876 14.4672 58.7784 14.0853C59.624 13.6724 59.9337 12.9707 59.6098 12.2618C59.281 11.5481 58.5498 11.3023 57.6994 11.6818C56.0677 12.405 54.4432 13.1449 52.8282 13.9039C51.8445 14.367 51.6206 14.9971 52.0827 15.9948C52.8783 17.7086 53.6977 19.4127 54.5266 21.1122C54.9411 21.9643 55.6366 22.2602 56.356 21.9404C57.0825 21.6158 57.2945 20.8401 56.8943 19.9379C56.6728 19.4414 56.4369 18.9521 56.2107 18.458C56.2011 18.4389 56.2154 18.4103 56.2512 18.1239C57.9019 19.4199 59.5454 20.5322 60.9794 21.8664C66.8439 27.3323 69.9547 34.1132 70.3621 42.133C70.3811 42.522 70.3883 42.9111 70.4216 43.2978C70.4955 44.1403 70.9957 44.6368 71.746 44.6296C72.4749 44.6225 73.0466 44.0902 73.0442 43.2667C73.0442 42.2046 72.9918 41.1377 72.8727 40.0827C71.9342 31.6715 68.2993 24.6495 61.8893 19.1335C60.3672 17.8231 58.6069 16.7944 56.9562 15.6368C56.7657 15.5103 56.568 15.3933 56.3155 15.231Z" fill="#6A6AF4"/>
<path fill-rule="evenodd" clip-rule="evenodd" d="M11.8519 65.5556C6.94074 65.5556 2.96296 61.5778 2.96296 56.6667C2.96296 51.7556 6.94074 47.7778 11.8519 47.7778C16.763 47.7778 20.7407 51.7556 20.7407 56.6667C20.7407 61.5778 16.763 65.5556 11.8519 65.5556ZM17.7778 56.6667C17.7778 59.9408 15.1259 62.5926 11.8519 62.5926C8.57778 62.5926 5.92593 59.9408 5.92593 56.6667C5.92593 53.3926 8.57778 50.7408 11.8519 50.7408C15.1259 50.7408 17.7778 53.3926 17.7778 56.6667Z" fill="#000091"/>
<path d="M0 78.8889C0 72.3433 5.30625 67.0371 11.8519 67.0371C18.3974 67.0371 23.7037 72.3433 23.7037 78.8889H20.7407C20.7407 73.9797 16.761 70.0001 11.8519 70.0001C6.94265 70.0001 2.96296 73.9797 2.96296 78.8889H0Z" fill="#000091"/>
<path fill-rule="evenodd" clip-rule="evenodd" d="M68.148 65.5556C63.2369 65.5556 59.2591 61.5778 59.2591 56.6667C59.2591 51.7556 63.2369 47.7778 68.148 47.7778C73.0591 47.7778 77.0369 51.7556 77.0369 56.6667C77.0369 61.5778 73.0591 65.5556 68.148 65.5556ZM74.0739 56.6667C74.0739 59.9408 71.4221 62.5926 68.148 62.5926C64.8739 62.5926 62.2221 59.9408 62.2221 56.6667C62.2221 53.3926 64.8739 50.7408 68.148 50.7408C71.4221 50.7408 74.0739 53.3926 74.0739 56.6667Z" fill="#000091"/>
<path d="M56.2961 78.8889C56.2961 72.3433 61.6024 67.0371 68.148 67.0371C74.6936 67.0371 79.9998 72.3433 79.9998 78.8889H77.0369C77.0369 73.9797 73.0572 70.0001 68.148 70.0001C63.2388 70.0001 59.2591 73.9797 59.2591 78.8889H56.2961Z" fill="#000091"/>
<path fill-rule="evenodd" clip-rule="evenodd" d="M39.9999 21.1113C35.0888 21.1113 31.111 17.1335 31.111 12.2224C31.111 7.31127 35.0888 3.3335 39.9999 3.3335C44.911 3.3335 48.8888 7.31127 48.8888 12.2224C48.8888 17.1335 44.911 21.1113 39.9999 21.1113ZM45.9259 12.2224C45.9259 15.4965 43.274 18.1483 39.9999 18.1483C36.7259 18.1483 34.074 15.4965 34.074 12.2224C34.074 8.94831 36.7259 6.29646 39.9999 6.29646C43.274 6.29646 45.9259 8.94831 45.9259 12.2224Z" fill="#000091"/>
<path d="M28.1481 34.4446C28.1481 27.899 33.4543 22.5928 39.9999 22.5928C46.5455 22.5928 51.8518 27.899 51.8518 34.4446H48.8888C48.8888 29.5354 44.9091 25.5557 39.9999 25.5557C35.0907 25.5557 31.111 29.5354 31.111 34.4446H28.1481Z" fill="#000091"/>
</svg>
