<svg viewBox="0 0 786 786" fill="none" xmlns="http://www.w3.org/2000/svg">
<path d="M215.799 126H531.152C552.052 126 568.993 142.941 568.993 163.841V517.035C568.993 537.934 552.052 554.875 531.152 554.875H215.799V126Z" fill="#00585D"/>
<path d="M215.799 126H531.152C552.052 126 568.993 142.941 568.993 163.841V517.035C568.993 537.934 552.052 554.875 531.152 554.875H215.799V126Z" fill="#00585D"/>
<path d="M215.799 126L494.266 233.007C508.891 238.627 518.537 252.671 518.537 268.331V622.119C518.537 649.02 491.256 667.329 466.365 657.143L277.396 579.807C271.321 577.323 264.373 578.411 259.346 582.63L215.799 619.209V126Z" fill="#009099"/>
<path d="M361.694 272.743C391.204 283.069 415.501 317.225 415.501 348.965C415.501 380.705 391.204 397.145 361.694 385.945C332.184 374.744 309.442 341.102 309.442 310.277C309.442 279.452 332.658 262.611 361.694 272.743ZM459.583 504.699C459.583 470.697 433.217 432.97 401.237 420.614L330.742 393.447C300.478 381.773 276.341 398.694 276.341 431.021C276.341 463.348 300.518 499.693 330.742 512.369L459.576 566.31V504.706L459.583 504.699Z" fill="white"/>
</svg>
