<svg width="72" height="72" xmlns="http://www.w3.org/2000/svg" xmlns:xlink="http://www.w3.org/1999/xlink">
    <defs>
        <path id="a" d="M0 0h26.862v37.854H0z"/>
        <path id="c" d="M0 0h21.283v28.071H0z"/>
    </defs>
    <g fill="none" fill-rule="evenodd">
        <g transform="translate(0 34.146)">
            <mask id="b" fill="#fff">
                <use xlink:href="#a"/>
            </mask>
            <path d="M7.588 15.785V5.893H22.6l-.263.383a7.547 7.547 0 0 0-.107.16c-.077.12-.15.229-.234.326-.382.438-.766.874-1.15 1.31-.509.577-1.017 1.154-1.52 1.736-.631.728-.632 1.32-.004 2.047.599.692 1.203 1.38 1.806 2.068l1.103 1.26c.049.055.07.114.09.173l.168.429h-14.9zm2.15 19.204.031.273H2.76l.04-.28c.243-1.66 1.76-2.91 3.55-2.866 1.716.023 3.204 1.286 3.388 2.873zm15.95-16.484c.536-.03.892-.264 1.058-.696.2-.525.141-.966-.182-1.348l-4.748-5.545.324-.39c.137-.164.265-.32.397-.473.354-.413.71-.825 1.065-1.237.928-1.075 1.888-2.187 2.801-3.303.247-.302.415-.743.417-1.097.002-.324-.083-.567-.261-.746-.248-.25-.685-.377-1.298-.378-3.873-.002-7.745-.002-11.617-.001H7.509v-.245c0-.242.005-.472.009-.695.009-.46.018-.894-.02-1.312C7.442.399 7.038.029 6.36.002A2.404 2.404 0 0 0 6.258 0c-.38 0-.662.093-.86.284C5.14.531 5.01.96 5.01 1.561c-.003 9.067-.005 18.133.007 27.2.001.56-.129.932-.796 1.176-2.787 1.017-4.435 3.619-4.2 6.63.065.835.487 1.262 1.253 1.268 3.19.025 6.443.025 9.946.002.72-.005 1.21-.456 1.279-1.178.288-3.038-1.34-5.675-4.149-6.72-.602-.223-.824-.541-.819-1.173.016-2.16.015-4.321.013-6.482V19.48c0-.147.014-.294.03-.463.008-.083.016-.17.023-.267l.017-.226h16.681c.457.002.931.006 1.392-.02z" fill="#000091" mask="url(#b)"/>
        </g>
        <g transform="translate(50.717)">
            <mask id="d" fill="#fff">
                <use xlink:href="#c"/>
            </mask>
            <path d="M6.546 12.199V5.146h10.793l-1.062 1.217c-.468.536-.915 1.05-1.366 1.563-.496.565-.498.925-.006 1.482l2.454 2.79H6.546zm.756 12.921.132.335H2.687l.167-.35c.453-.947 1.338-1.483 2.367-1.432 1.02.05 1.721.537 2.08 1.447zm13.857-11.054c.246-.557.13-1.04-.39-1.613a167.618 167.618 0 0 1-2.259-2.556l-1.076-1.231 1.044-1.192c.73-.835 1.45-1.658 2.18-2.473.522-.584.789-1.077.505-1.73-.28-.643-.804-.695-1.573-.69-2.58.006-5.158.006-7.738.005l-5.526-.001L6.327 2c.001-.201.002-.374-.002-.547C6.3.49 5.88 0 5.073 0h-.008C4.048.004 3.824.8 3.814 1.466c-.002.14-.002.279-.002.418v3.823c0 4.873.001 9.746-.001 14.618l.003.13c.011.307.026.727-.564.97-2.22.909-3.455 2.972-3.222 5.382.08.827.5 1.234 1.286 1.242 2.605.03 5.181.03 7.655 0 .838-.009 1.26-.454 1.292-1.361.084-2.36-.956-4.101-3.09-5.178-.433-.218-.718-.49-.702-1.101.022-.854.017-1.725.013-2.568-.001-.345-.003-.69-.003-1.036v-2.03H19.73c.793 0 1.207-.204 1.43-.709z" fill="#000091" mask="url(#d)"/>
        </g>
        <path d="M49.943 44.876c1.43-.203 2.354-.891 2.824-2.104.449-1.158.205-2.22-.768-3.342-1.41-1.629-2.826-3.299-4.196-4.914l-1.159-1.367a7.673 7.673 0 0 1-.368-.483l-.2-.274-.186-.25.532-.229c.145-.064.263-.117.383-.16.229-.08.459-.156.688-.233.435-.144.885-.293 1.307-.473.728-.31.98-.973.673-1.775-.113-.296-.325-.643-.883-.643-.176 0-.387.035-.64.117-.575.186-1.15.38-1.722.574l-.088.03c-1.11.375-1.91 1.171-2.195 2.185-.283 1.008-.017 2.097.73 2.987.731.873 1.471 1.739 2.211 2.605l4.216 4.964-.396.087c-.249.055-.47.107-.676.156-.403.095-.75.177-1.103.23-1.15.173-2.3.34-3.452.506-1.828.265-3.718.539-5.571.836-1.92.308-3.431 1.325-4.252 2.863-.813 1.521-.818 3.398-.014 5.148.515 1.12 1.038 2.236 1.56 3.352.455.971.91 1.943 1.36 2.917.446.966.48 1.915.097 2.67-.381.754-1.162 1.285-2.197 1.495-3.763.767-7.529 1.521-11.294 2.276l-6.151 1.231c-1.209.24-2.459.486-3.68.755-.637.14-1.045.724-.972 1.388.075.67.55 1.08 1.272 1.096.235.006.488-.018.75-.07l10.364-2.078c3.302-.663 6.605-1.325 9.908-1.986 1.906-.381 3.385-1.436 4.165-2.97.778-1.53.76-3.343-.053-5.102a580.939 580.939 0 0 0-1.523-3.263c-.449-.956-.897-1.912-1.342-2.87-.498-1.076-.523-2.125-.07-2.957.459-.841 1.37-1.396 2.567-1.563 1.93-.27 3.86-.547 5.79-.824 1.251-.18 2.502-.36 3.754-.538" fill="#9A9AFF"/>
    </g>
</svg>
