<svg width="72" height="72" xmlns="http://www.w3.org/2000/svg" xmlns:xlink="http://www.w3.org/1999/xlink">
    <defs>
        <path id="a" d="M0 0h72v69.138H0z"/>
    </defs>
    <g fill="none" fill-rule="evenodd">
        <g transform="translate(0 1)">
            <mask id="b" fill="#fff">
                <use xlink:href="#a"/>
            </mask>
            <path d="M48.393 6.82c-1.186.009-2.373.008-3.56.007h-2.739a707.068 707.068 0 0 1-3.318-.003c-1.48-.009-2.446-.865-2.463-2.181-.008-.614.2-1.154.6-1.56.446-.453 1.11-.704 1.872-.706 3.725-.012 6.825-.012 9.756.002 1.298.005 2.212.754 2.386 1.953.148 1.013-.507 2.05-1.49 2.362-.34.107-.703.125-1.044.127zm-8.39 5.71h7.267V9.217h-7.268v3.313zM67.57 56.004c1.803-2.837 3.055-5.87 3.722-9.018.202-.955.355-1.942.502-2.897.067-.436.134-.872.206-1.307v-3.944l-.079-.531c-.055-.391-.11-.782-.172-1.171-1.65-10.543-7.393-18.094-17.069-22.442-1.047-.47-2.131-.818-3.28-1.186a69.227 69.227 0 0 1-1.602-.527l-.164-.057v-.174l.003-.81c.005-.68.01-1.384-.014-2.085-.02-.588.26-.818.687-.981 2.042-.783 3.273-2.84 2.929-4.89C52.85 1.665 51.07.083 48.81.048c-4.186-.067-7.392-.065-10.396.005a4.537 4.537 0 0 0-3.583 1.85 4.517 4.517 0 0 0-.694 3.955c.462 1.6 1.545 2.654 3.312 3.222l.17.055V12.217c-.001.146-.01.292-.017.441l-.018.379-.346.116c-.134.046-.26.09-.39.122-6.056 1.5-11.165 4.737-15.185 9.62-.37.449-.765.633-1.36.633h-.019c-3.12-.02-6.212-.013-9.201-.007-.873.002-1.437.464-1.436 1.177.001.715.552 1.16 1.438 1.162 1.37.003 2.74.002 4.11.002l3.11.001c.161 0 .322.011.47.021l.529.03-.144.325c-.201.453-.403.901-.604 1.347a127.879 127.879 0 0 0-1.513 3.457c-.236.57-.542.783-1.127.783h-.01c-3.8-.016-7.601-.014-11.399-.012H1.622a4.789 4.789 0 0 0-.62.024c-.547.068-.957.5-.999 1.05-.041.547.315 1.056.828 1.182.294.073.617.083.923.083 3.511.005 7.023.005 10.534.004h3.675l-.759 5.916-2.526-.001a271.76 271.76 0 0 0-3.814.01c-.707.008-1.219.499-1.217 1.167.002.672.506 1.15 1.225 1.161.914.014 1.829.012 2.743.008l1.146-.002h2.481l.953 5.931-8.879.001c-.2 0-.39-.001-.575.021-.65.08-1.092.565-1.077 1.178.015.596.445 1.045 1.07 1.118.217.025.439.024.671.025l2.153.002c2.127.004 4.326.008 6.488-.016h.04c.735 0 1.097.246 1.375.927 3.135 7.68 9.502 13.563 17.467 16.142 7.977 2.582 16.596 1.544 23.649-2.85.59-.368.948-.766 1.033-1.153.058-.259 0-.517-.178-.789-.29-.443-.788-.85-2.085-.06-5.83 3.552-12.155 4.679-18.795 3.355-7.887-1.575-14.488-6.57-18.112-13.705-3.628-7.144-3.767-15.43-.381-22.737 3.577-7.717 10.754-13.19 19.2-14.64 8.535-1.465 16.877 1.218 22.88 7.361 5.782 5.915 8.225 13.19 7.263 21.626-.419 3.669-1.697 7.233-3.799 10.593-.25.401-.34.796-.259 1.14.066.278.245.513.518.68.6.364 1.254.15 1.708-.562z" fill="#000091" mask="url(#b)"/>
        </g>
        <path d="M57.344 55.468c-3.662 3.67-8.522 5.694-13.685 5.7h-.02c-5.152 0-10.006-2.016-13.67-5.679-3.67-3.667-5.69-8.53-5.692-13.692-.004-10.671 8.678-19.365 19.354-19.378h.026a19.22 19.22 0 0 1 13.67 5.656 19.256 19.256 0 0 1 5.685 13.694c.006 5.164-2.007 10.03-5.668 13.7M43.692 20.074h-.114c-5.727 0-11.126 2.232-15.216 6.293-4.117 4.089-6.4 9.528-6.428 15.315-.058 11.968 9.644 21.76 21.628 21.827h.123c11.883 0 21.592-9.66 21.67-21.59.037-5.8-2.185-11.263-6.256-15.381-4.09-4.138-9.562-6.434-15.407-6.464M1.183 49.362h-.017c-.627 0-1.148.502-1.165 1.127-.008.315.107.611.325.833.224.228.512.341.855.348a1.149 1.149 0 0 0 1.154-1.15c0-.63-.516-1.15-1.152-1.158M62.805 62.158c.325.019.632-.096.868-.315.23-.215.362-.505.369-.818.013-.617-.507-1.152-1.137-1.17h-.037c-.637 0-1.13.467-1.152 1.1-.023.653.445 1.17 1.089 1.203" fill="#000091"/>
        <path d="M44.887 43.088c-.341.33-.779.51-1.238.51l-.042-.001a1.826 1.826 0 0 1-1.765-1.786 1.776 1.776 0 0 1 .51-1.283 1.793 1.793 0 0 1 1.287-.536h.004a1.8 1.8 0 0 1 1.288.53c.337.34.52.795.515 1.28a1.828 1.828 0 0 1-.559 1.286m7.12-8.007 1.24-1.243.337-.333c.3-.294.612-.6.888-.918a1.153 1.153 0 0 0-.055-1.589c-.44-.433-1.097-.445-1.6-.03-.114.093-.218.2-.322.307L51.05 32.72c-1.628 1.625-3.255 3.25-4.873 4.883-.31.314-.629.482-1.17.274a3.734 3.734 0 0 0-2.73.003c-.54.209-.859.038-1.17-.284a128.489 128.489 0 0 0-2.594-2.602c-.306-.299-.67-.453-1.01-.455a1.09 1.09 0 0 0-.777.352c-.489.507-.445 1.156.117 1.736l.195.201c.66.683 1.344 1.388 2.052 2.035.507.465 1.009 1.037.532 1.956-.085.165-.104.386-.121.599a3.909 3.909 0 0 1-.027.263c.099 1.9.912 3.17 2.485 3.878 1.58.711 3.108.478 4.417-.676 1.32-1.162 1.734-2.67 1.2-4.361-.21-.66-.018-1.02.36-1.39 1.367-1.339 2.741-2.718 4.07-4.052" fill="#9A9AFF"/>
        <path d="M44.822 26.671c-.035-.7-.476-1.164-1.122-1.182h-.037c-.637 0-1.114.447-1.166 1.1-.038.486-.038.97.002 1.437.057.658.573 1.12 1.212 1.09.62-.025 1.065-.481 1.108-1.135.01-.154.007-.308.005-.462l-.003-.47h.005a6.325 6.325 0 0 0-.004-.378M58.382 42.973c.173.005.336.01.492-.008.624-.077 1.088-.584 1.08-1.18-.01-.632-.501-1.111-1.17-1.14-.245-.01-.475-.017-.692-.017-.245 0-.473.008-.69.02-.615.04-1.048.473-1.079 1.08-.03.622.34 1.1.942 1.216a3.45 3.45 0 0 0 .627.043v-.005l.239-.014c.083 0 .167.002.25.005M42.467 56.898c.034.682.498 1.173 1.127 1.195.616.018 1.147-.47 1.196-1.118a8.118 8.118 0 0 0-.01-1.5 1.143 1.143 0 0 0-1.204-1.028c-.61.03-1.066.5-1.107 1.142-.01.152-.007.305-.005.458l.003.23-.002.198c-.003.141-.005.283.002.423M30.966 41.723c-.017-.592-.411-1.021-1.005-1.095a5.097 5.097 0 0 0-.51-.028v.004l-.236.012c-.084 0-.167-.002-.25-.004a10.18 10.18 0 0 0-.24-.004c-.09 0-.178.003-.268.01-.652.055-1.114.52-1.122 1.132a1.131 1.131 0 0 0 1.019 1.152 7.27 7.27 0 0 0 1.703-.02c.562-.076.928-.542.91-1.159" fill="#000091"/>
    </g>
</svg>
