<svg width="80" height="80" viewBox="0 0 80 80" fill="none" xmlns="http://www.w3.org/2000/svg">
<path d="M0 76.0976C1.83056 71.4927 3.65882 66.8877 5.49401 62.2828C5.74363 61.6549 5.9817 61.0199 6.28448 60.4176C6.95707 59.071 8.06188 58.3314 9.55962 58.2872C11.0597 58.243 12.562 58.2616 14.0621 58.2779C14.878 58.2872 15.3772 58.771 15.3818 59.4943C15.3865 60.2129 14.8872 60.7432 14.0898 60.7595C12.7192 60.7897 11.3463 60.7967 9.97566 60.7618C9.12971 60.7385 8.65127 61.0851 8.33231 61.8758C6.51792 66.3807 4.66655 70.8694 2.83137 75.365C2.25354 76.779 2.74123 77.507 4.26901 77.507C14.0759 77.5093 23.8829 77.5093 33.6921 77.5093C47.382 77.5093 61.0697 77.5093 74.7596 77.5093C75.0185 77.5093 75.2774 77.5163 75.5362 77.507C76.6988 77.4628 77.2189 76.693 76.7797 75.5999C75.6657 72.8276 74.5308 70.067 73.4029 67.3017C72.6864 65.5458 71.9722 63.7899 71.2534 62.0363C70.7911 60.9083 70.5946 60.7757 69.4089 60.7734C68.14 60.7711 66.8734 60.7827 65.6045 60.7688C64.6314 60.7595 64.0952 60.278 64.1137 59.4664C64.1322 58.6966 64.6476 58.2779 65.6114 58.2733C66.982 58.2663 68.355 58.264 69.7256 58.2733C71.4198 58.2849 72.6771 59.0501 73.3312 60.6246C75.3028 65.3737 77.2327 70.1391 79.1696 74.9022C79.3245 75.2836 79.4008 75.6952 79.5117 76.0953C79.5117 76.1999 79.5117 76.3046 79.5117 76.4069C79.2043 78.2419 78.1781 79.4466 76.4053 80.0001C51.9723 80.0001 27.5394 80.0001 3.10872 80.0001C1.3475 79.4373 0.295849 78.2535 0.00231181 76.4069C4.93803e-07 76.3069 0 76.2022 0 76.0976Z" fill="#000091"/>
<path d="M61.0305 0C62.1723 0.306995 63.3534 0.513984 64.4489 0.939591C72.1618 3.9421 75.3722 13.1147 71.2142 20.3035C67.7934 26.2178 64.3056 32.0903 60.841 37.979C60.0782 39.2744 59.0751 39.2675 58.3078 37.9627C54.8477 32.0717 51.3576 26.1992 47.9507 20.2803C43.1825 11.9961 48.2605 1.51172 57.656 0.144195C57.8016 0.123263 57.9403 0.0511659 58.0813 0.00232577C59.0636 5.32835e-08 60.0459 0 61.0305 0ZM59.5536 35.1649C59.6576 35.044 59.7385 34.9742 59.787 34.8881C62.942 29.5134 66.2079 24.2014 69.2056 18.7407C71.4314 14.6869 71.0801 10.5471 68.2788 6.8632C65.4821 3.18624 61.6476 1.79778 57.1336 2.80017C49.9131 4.40259 46.3837 12.6519 50.1118 19.0918C52.4532 23.1363 54.8408 27.1551 57.2076 31.1856C57.9796 32.4996 58.7562 33.8136 59.5536 35.1649Z" fill="#6A6AF4"/>
<path d="M21.1674 72.3091C23.6497 72.3091 26.0442 72.3091 28.5405 72.3091C28.5405 71.9835 28.5405 71.6789 28.5405 71.3765C28.5405 67.0274 28.6167 62.676 28.5127 58.3292C28.4457 55.4639 30.727 54.0197 32.791 54.0499C37.4483 54.1174 42.1079 54.1104 46.7675 54.0546C48.9795 54.029 51.0504 55.643 50.9903 58.3036C50.8932 62.676 50.9649 67.053 50.9649 71.4277C50.9649 71.7068 50.9649 71.9882 50.9649 72.3045C53.4472 72.3045 55.8441 72.3045 58.3565 72.3045C58.3565 71.9998 58.3565 71.6975 58.3565 71.3951C58.3565 62.4876 58.3565 53.5824 58.3565 44.6749C58.3565 44.44 58.3542 44.2051 58.3565 43.9726C58.3703 42.9818 58.821 42.4213 59.5977 42.4283C60.3673 42.4353 60.8273 42.9981 60.8273 44.0005C60.8319 53.7406 60.8319 63.4807 60.8273 73.2208C60.8273 74.4325 60.3927 74.8395 59.1608 74.8395C46.2452 74.8418 33.3318 74.8418 20.4162 74.8395C19.0664 74.8395 18.6896 74.4534 18.6896 73.0487C18.6873 68.3089 18.6896 63.5691 18.6896 58.8293C18.6896 45.6773 18.6873 32.5254 18.6919 19.3758C18.6919 17.2198 19.7551 15.7314 21.6504 15.2453C22.0202 15.1499 22.4178 15.122 22.8015 15.122C29.1691 15.1174 35.5368 15.1174 41.9022 15.1197C42.8175 15.1197 43.2821 15.4406 43.4254 16.1291C43.5594 16.7803 43.1295 17.4361 42.4407 17.5803C42.1657 17.6384 41.8745 17.6245 41.5902 17.6245C35.4559 17.6268 29.3217 17.6245 23.1875 17.6268C21.5325 17.6268 21.165 17.992 21.165 19.6293C21.165 36.8698 21.165 54.1104 21.165 71.3509C21.1674 71.6579 21.1674 71.9626 21.1674 72.3091ZM38.4583 72.3231C38.4583 67.0321 38.4583 61.8201 38.4583 56.5663C36.5469 56.5663 34.6886 56.5617 32.8326 56.5687C31.4712 56.5733 31.0205 57.0268 31.0205 58.385C31.0182 62.7528 31.0205 67.1228 31.0205 71.4905C31.0205 71.7626 31.0205 72.0347 31.0205 72.3231C33.5653 72.3231 35.9875 72.3231 38.4583 72.3231ZM48.4016 72.3231C48.4409 72.2045 48.4687 72.158 48.4687 72.1091C48.4733 67.3763 48.4848 62.6434 48.4733 57.9106C48.471 57.1012 47.9394 56.6222 47.0634 56.5756C46.4694 56.5454 45.8754 56.5663 45.2813 56.5663C43.8691 56.5663 42.4592 56.5663 41.047 56.5663C41.047 61.876 41.047 67.0879 41.047 72.3231C43.5201 72.3231 45.9424 72.3231 48.4016 72.3231Z" fill="#000091"/>
<path d="M47.9378 47.3747C46.6435 47.3747 45.3491 47.3863 44.0571 47.3701C43.1118 47.3584 42.668 46.9328 42.6611 45.9886C42.6449 43.5675 42.6449 41.1441 42.6611 38.723C42.668 37.7649 43.1002 37.3276 44.0363 37.323C46.6504 37.309 49.2645 37.309 51.8763 37.323C52.7962 37.3276 53.2423 37.7928 53.2492 38.7393C53.2631 41.1348 53.2631 43.5303 53.2492 45.9258C53.2446 46.9096 52.7939 47.3561 51.8208 47.3677C50.5242 47.384 49.2321 47.3747 47.9378 47.3747ZM45.1827 39.844C45.1827 41.5581 45.1827 43.1838 45.1827 44.8374C47.0572 44.8374 48.8762 44.8374 50.7091 44.8374C50.7091 43.1419 50.7091 41.4976 50.7091 39.844C48.8461 39.844 47.0433 39.844 45.1827 39.844Z" fill="#000091"/>
<path d="M31.5225 47.3749C30.2814 47.3749 29.0379 47.3819 27.7967 47.3726C26.7058 47.3656 26.2735 46.9493 26.2666 45.8772C26.255 43.5073 26.255 41.1397 26.2666 38.7698C26.2712 37.772 26.7081 37.3278 27.6834 37.3232C30.2698 37.3115 32.8585 37.3115 35.4448 37.3232C36.3994 37.3278 36.8316 37.7465 36.8363 38.6977C36.8501 41.1443 36.8524 43.591 36.834 46.0376C36.827 46.9354 36.3832 47.3587 35.4772 47.368C34.1621 47.3866 32.8423 47.3726 31.5225 47.3749ZM28.7744 44.8376C30.6535 44.8376 32.4702 44.8376 34.31 44.8376C34.31 43.1468 34.31 41.5071 34.31 39.8698C32.4332 39.8698 30.6188 39.8698 28.7744 39.8698C28.7744 41.5351 28.7744 43.1375 28.7744 44.8376Z" fill="#000091"/>
<path d="M31.5239 32.2557C30.2827 32.2557 29.0392 32.2673 27.798 32.2533C26.6793 32.2417 26.2702 31.8161 26.2656 30.6718C26.2587 28.3554 26.2564 26.039 26.2656 23.7203C26.2702 22.6295 26.7001 22.1876 27.761 22.183C30.2966 22.176 32.8321 22.176 35.3676 22.183C36.4054 22.1853 36.8353 22.6062 36.8399 23.6458C36.8515 26.0413 36.8515 28.4368 36.8399 30.83C36.8353 31.8184 36.4077 32.2347 35.4046 32.2487C34.1102 32.2696 32.8182 32.2557 31.5239 32.2557ZM34.3298 24.7506C32.453 24.7506 30.6155 24.7506 28.7942 24.7506C28.7942 26.4437 28.7942 28.0717 28.7942 29.716C30.6641 29.716 32.4831 29.716 34.3298 29.716C34.3298 28.0275 34.3298 26.3995 34.3298 24.7506Z" fill="#000091"/>
<path d="M45.1259 29.7786C46.025 29.7786 46.8456 29.7693 47.6661 29.7809C48.6345 29.7925 49.2031 30.2856 49.1777 31.0601C49.1522 31.8089 48.6137 32.2438 47.6614 32.2555C46.4989 32.2671 45.334 32.2671 44.1714 32.2555C43.0758 32.2438 42.6598 31.8368 42.6528 30.7554C42.6413 28.3878 42.6413 26.0225 42.6528 23.655C42.6575 22.7247 43.1336 22.1874 43.894 22.1944C44.6475 22.1991 45.1098 22.7363 45.1167 23.6829C45.1329 25.3992 45.1213 27.1156 45.1213 28.832C45.1282 29.1111 45.1259 29.3925 45.1259 29.7786Z" fill="#000091"/>
<path d="M52.4299 13.5495C52.416 9.57482 55.5917 6.34905 59.5487 6.31184C63.4502 6.27463 66.7346 9.53994 66.7624 13.4797C66.7901 17.459 63.5334 20.7569 59.5788 20.7569C55.6241 20.7546 52.4437 17.5474 52.4299 13.5495ZM54.9053 13.5634C54.9261 16.1775 57.034 18.28 59.6157 18.2614C62.1813 18.2428 64.2985 16.0845 64.2823 13.503C64.2661 10.9237 62.1097 8.78175 59.5557 8.80734C56.96 8.83292 54.8868 10.954 54.9053 13.5634Z" fill="#6A6AF4"/>
</svg>
