<svg xmlns="http://www.w3.org/2000/svg" xmlns:xlink="http://www.w3.org/1999/xlink" viewBox="0 0 651 378"><defs><path id="a" d="M0 0h374.356v377.42H0z"/></defs><g fill="none" fill-rule="evenodd"><path d="M360.206 264.953h-9.99a3.334 3.334 0 0 0-3.34 3.324c0 1.84 1.501 3.34 3.34 3.34h9.99c1.84 0 3.325-1.5 3.325-3.34a3.32 3.32 0 0 0-3.325-3.324zm-33.728-57.42c20.898 0 37.892-16.993 37.892-37.892v-27.032c0-9.182-7.472-16.654-16.655-16.654H305.24c-9.199 0-16.67 7.472-16.67 16.654v27.032c0 20.899 17.009 37.892 37.908 37.892zm9.327 18.091a3.333 3.333 0 0 1-2.55 3.954c-8.762 1.92-17.687 0-24.788-4.842-7.036 7.537-16.315 6.553-15.073 6.553-15.315 0-27.725 12.394-27.725 27.725v19.688a3.32 3.32 0 0 1-3.324 3.325 3.334 3.334 0 0 1-3.341-3.325v-19.688c0-19.01 15.38-34.39 34.39-34.39 7.682 0 13.928-6.198 13.928-13.88v-.887c-14.54-6.94-24.756-21.56-25.37-38.57-5.987-1.436-10.457-6.794-10.457-13.169V140.85c-.178-8.456 1.081-29.63 16.525-44.525 19.06-18.365 49.625-17.203 72.106-6.374 2.194 1.049 2.517 4.018.71 5.551 11.377 2.776 21.205 9.764 27.515 19.786.323.516.92 1.323.759 2.63-.097.79-.34 1.485-.952 2.098-4.067 4.131-6.294 9.586-6.294 15.38v22.722a3.334 3.334 0 0 1-3.341 3.325 3.32 3.32 0 0 1-3.324-3.325v-22.722c0-6.681 2.275-13.024 6.471-18.123-6.39-9.135-16.348-15.009-27.629-16.22l-5.842-.612c-3.437-.372-4.099-5.084-.92-6.407l2.663-1.098c-34.68-12.087-71.782 1.356-71.782 47.866v17.316c0 2.647 1.533 4.938 3.76 6.084V142.61c0-12.862 10.458-23.32 23.32-23.32h42.475c12.862 0 23.32 10.458 23.32 23.32v27.274c0 28.984-28.322 50.996-57.129 42.508a20.191 20.191 0 0 1-1.743 6.81 25.286 25.286 0 0 0 19.672 3.873 3.345 3.345 0 0 1 3.97 2.55zm58.13 33.39v19.688a3.32 3.32 0 0 1-3.324 3.325 3.334 3.334 0 0 1-3.341-3.325v-19.688c0-15.315-12.394-27.725-27.725-27.725-7.246 0-13.83-3.696-17.591-9.877-.952-1.582-.468-3.631 1.114-4.583 1.565-.952 3.615-.452 4.583 1.113 2.55 4.18 6.988 6.681 11.894 6.681 19.01 0 34.39 15.38 34.39 34.39z" fill="#293172"/><path d="M331.306 16.874c-2.21-.032-4.438-.032-6.649 0l-.129-6.778c2.292-.048 4.616-.048 6.907 0l-.129 6.778zm-33.083 2.566-1.178-6.681a158.11 158.11 0 0 1 6.826-1.065l.92 6.713c-2.21.307-4.39.646-6.568 1.033zm59.517 0a179.247 179.247 0 0 0-6.568-1.033l.92-6.713c2.292.306 4.567.677 6.826 1.065l-1.178 6.681zm-85.225 6.649-2.211-6.407a156.432 156.432 0 0 1 6.584-2.13l1.953 6.504a144.23 144.23 0 0 0-6.326 2.033zm110.95.016a170.805 170.805 0 0 0-6.343-2.05l1.953-6.503a186.76 186.76 0 0 1 6.6 2.146l-2.21 6.407zm-135.286 10.57-3.18-5.987a156.57 156.57 0 0 1 6.149-3.114l2.937 6.1a202.764 202.764 0 0 0-5.906 3.002zm159.638.033a156.912 156.912 0 0 0-5.923-3.018l2.954-6.1c2.081 1 4.13 2.05 6.164 3.13l-3.195 5.988zM225.779 50.926l-4.067-5.423a176.234 176.234 0 0 1 5.6-4.034l3.857 5.567a182.554 182.554 0 0 0-5.39 3.89zm204.454.048a163.428 163.428 0 0 0-5.39-3.89l3.873-5.567a169.85 169.85 0 0 1 5.6 4.05l-4.083 5.407zm-224.4 17.494-4.858-4.729a174.64 174.64 0 0 1 4.922-4.857l4.664 4.906a215.5 215.5 0 0 0-4.729 4.68zm244.347.064a183.909 183.909 0 0 0-4.729-4.664l4.68-4.922a232.067 232.067 0 0 1 4.906 4.858l-4.857 4.728zm-261.374 20.35-5.519-3.937a197.292 197.292 0 0 1 4.115-5.552l5.374 4.132a183.713 183.713 0 0 0-3.97 5.357zm278.367.049a161.98 161.98 0 0 0-3.938-5.326l5.374-4.147c1.388 1.823 2.76 3.68 4.1 5.551l-5.536 3.922zm-292.036 22.738-6.068-3.017a157.505 157.505 0 0 1 3.212-6.133l5.939 3.26a156.847 156.847 0 0 0-3.083 5.89zm305.689.033a155.83 155.83 0 0 0-3.066-5.875l5.939-3.26a146.667 146.667 0 0 1 3.195 6.117l-6.068 3.018zm-315.694 24.61-6.456-2.05c.694-2.21 1.437-4.405 2.228-6.567l6.374 2.307a161 161 0 0 0-2.146 6.31zm325.683 0a205.86 205.86 0 0 0-2.13-6.293l6.375-2.308a240.742 240.742 0 0 1 2.227 6.552l-6.472 2.05zM159.08 162.166l-6.714-1.033c.355-2.276.759-4.551 1.195-6.794l6.649 1.29a172.06 172.06 0 0 0-1.13 6.537zm337.787.016c-.323-2.195-.71-4.39-1.13-6.552l6.666-1.291c.435 2.259.823 4.518 1.178 6.81l-6.714 1.033zm-339.82 26.482h-6.779c0-2.307.049-4.615.13-6.907l6.778.259c-.081 2.21-.13 4.421-.13 6.648zm341.854.017c0-2.244-.049-4.454-.13-6.665l6.779-.242c.08 2.275.129 4.583.129 6.89l-6.778.017zm-348.1 13.798a161.241 161.241 0 0 1-.387-6.891l6.762-.258c.096 2.227.21 4.438.387 6.632l-6.762.517zm352.78 13.717-6.714-1.033c.34-2.178.646-4.373.888-6.584l6.746.775a240.293 240.293 0 0 1-.92 6.842zm-348.584 13.572c-.516-2.227-1-4.486-1.436-6.745l6.649-1.308c.42 2.195.887 4.358 1.387 6.504l-6.6 1.55zm342.274 13.314-6.456-2.05a221.64 221.64 0 0 0 1.889-6.374l6.536 1.792a184.404 184.404 0 0 1-1.97 6.632zM163.373 256.09a156.167 156.167 0 0 1-2.47-6.456l6.375-2.307c.742 2.098 1.55 4.163 2.372 6.213l-6.277 2.55zm323.505 12.604-6.068-3.034c1-1.985 1.952-3.987 2.872-6.02l6.165 2.792a170.95 170.95 0 0 1-2.97 6.262zm-311.176 12.07a146.437 146.437 0 0 1-3.437-5.97l5.939-3.276a144.09 144.09 0 0 0 3.308 5.761l-5.81 3.486zm296.958 11.604-5.52-3.921a164.677 164.677 0 0 0 3.745-5.504l5.68 3.712a177.933 177.933 0 0 1-3.905 5.713zm-280.981 10.91a196.828 196.828 0 0 1-4.309-5.39l5.358-4.148a183.275 183.275 0 0 0 4.164 5.196l-5.213 4.342zm263.294 10.312-4.858-4.729a184.147 184.147 0 0 0 4.551-4.857l5.035 4.535a174.915 174.915 0 0 1-4.728 5.05zm-244.041 9.473a175.11 175.11 0 0 1-5.1-4.68l4.68-4.906a142.898 142.898 0 0 0 4.906 4.486l-4.486 5.1zm223.32 8.763-4.084-5.423a183.102 183.102 0 0 0 5.245-4.099l4.277 5.261a197.23 197.23 0 0 1-5.439 4.26zm-201.243 7.827a222.545 222.545 0 0 1-5.762-3.825l3.874-5.568a164.567 164.567 0 0 0 5.535 3.68l-3.647 5.713zm177.955 6.988-3.18-5.988a170.553 170.553 0 0 0 5.794-3.243l3.405 5.858a155.69 155.69 0 0 1-6.02 3.373zm-153.554 5.987a184.186 184.186 0 0 1-6.294-2.889l2.953-6.1a170.25 170.25 0 0 0 6.052 2.776l-2.711 6.213zm128.233 5.019-2.195-6.407a169.062 169.062 0 0 0 6.23-2.292l2.469 6.327c-2.147.823-4.309 1.63-6.504 2.372zm-102.106 3.986a175.075 175.075 0 0 1-6.649-1.856l1.937-6.504c2.13.646 4.26 1.243 6.407 1.792l-1.695 6.568zm75.381 2.937-1.178-6.681a178.79 178.79 0 0 0 6.52-1.275l1.436 6.617c-2.243.5-4.502.936-6.778 1.34zm-48.188 1.872c-2.308-.226-4.583-.5-6.859-.807l.904-6.713c2.195.29 4.39.549 6.6.758l-.645 6.762zm20.705.791-.145-6.778a180.25 180.25 0 0 0 6.649-.258l.387 6.778c-2.291.129-4.583.21-6.89.258z" fill="#A5BFE4"/><g transform="translate(140.424)"><mask id="b" fill="#fff"><use xlink:href="#a"/></mask><path d="M191.205 6.985a184.611 184.611 0 0 0-6.682-.178l.065-6.81c2.292.016 4.616.08 6.923.193l-.306 6.795zm-33.31 1.597-.952-6.745a190.34 190.34 0 0 1 6.875-.856l.71 6.778c-2.227.226-4.438.5-6.632.823zm59.825 1.55c-2.18-.42-4.374-.807-6.585-1.146l1.05-6.73c2.29.371 4.566.759 6.826 1.194l-1.291 6.682zm-85.855 4.212L129.88 7.84a157.42 157.42 0 0 1 6.68-1.888l1.728 6.584a163.479 163.479 0 0 0-6.423 1.808zm111.611 2.791a171.5 171.5 0 0 0-6.342-2.097l2.033-6.504c2.211.694 4.406 1.42 6.568 2.178l-2.259 6.423zM107.012 24.01l-2.953-6.148a221.22 221.22 0 0 1 6.294-2.873l2.71 6.246a170.25 170.25 0 0 0-6.051 2.775zm160.946 3.825a158.993 158.993 0 0 0-5.972-3.018l2.954-6.132c2.098 1 4.163 2.05 6.197 3.13l-3.18 6.02zm-184.056 9.49-3.84-5.617c1.92-1.307 3.84-2.566 5.809-3.792l3.615 5.761a184.154 184.154 0 0 0-5.584 3.647zm206.73 4.647a184.69 184.69 0 0 0-5.471-3.84l3.808-5.633a198.54 198.54 0 0 1 5.681 3.97l-4.018 5.503zM63.084 53.995l-4.648-4.97a155.494 155.494 0 0 1 5.164-4.632l4.438 5.148a184.096 184.096 0 0 0-4.954 4.454zm247.962 5.213a162.995 162.995 0 0 0-4.873-4.567l4.583-5.052a175.41 175.41 0 0 1 5.035 4.761l-4.745 4.858zM45.01 73.635l-5.358-4.212a177.202 177.202 0 0 1 4.406-5.374l5.18 4.422a184.204 184.204 0 0 0-4.228 5.164zM328.8 79.17a183.96 183.96 0 0 0-4.164-5.212l5.245-4.341a234.809 234.809 0 0 1 4.325 5.406l-5.407 4.147zM30.08 95.793l-5.906-3.373a200.09 200.09 0 0 1 3.534-5.971l5.794 3.582a169.192 169.192 0 0 0-3.422 5.762zm313.484 5.648a185.74 185.74 0 0 0-3.39-5.761l5.81-3.55a198.409 198.409 0 0 1 3.502 5.954l-5.922 3.357zM18.705 119.92l-6.36-2.42a184.94 184.94 0 0 1 2.599-6.44l6.262 2.68a158.546 158.546 0 0 0-2.502 6.18zm336.302 5.632a159.178 159.178 0 0 0-2.534-6.164l6.262-2.695a220.834 220.834 0 0 1 2.614 6.39l-6.342 2.47zM11.055 145.498l-6.65-1.468c.501-2.26 1.034-4.503 1.615-6.73l6.584 1.695a212.028 212.028 0 0 0-1.55 6.503zm351.827 5.552a209.45 209.45 0 0 0-1.614-6.472l6.569-1.775a185.39 185.39 0 0 1 1.678 6.714l-6.633 1.533zM7.262 171.916l-6.794-.468c.161-2.324.371-4.615.613-6.907l6.778.726a178.442 178.442 0 0 0-.597 6.65zm359.735 5.52a178.226 178.226 0 0 0-.677-6.65l6.761-.806c.275 2.291.5 4.583.694 6.89l-6.778.566zM.032 188.103A213.064 213.064 0 0 1 0 184.89c0-1.242.016-2.469.032-3.711l6.81.129a265.153 265.153 0 0 0-.032 3.582c0 1.033.016 2.066.033 3.099l-6.81.113zm374.002 16.46-6.778-.435c.129-2.227.225-4.454.29-6.665l6.81.178a166.857 166.857 0 0 1-.322 6.923zM2.5 215.684a196.59 196.59 0 0 1-1-6.859l6.762-.855a181.3 181.3 0 0 0 .952 6.617L2.5 215.683zM370.305 232l-6.65-1.404c.453-2.18.872-4.358 1.26-6.569l6.697 1.162a158.451 158.451 0 0 1-1.307 6.81zM8.94 242.6a156.441 156.441 0 0 1-1.97-6.632l6.553-1.808a170.63 170.63 0 0 0 1.904 6.375L8.941 242.6zm353.634 16.01-6.374-2.389a207.46 207.46 0 0 0 2.227-6.294l6.455 2.13c-.726 2.211-1.5 4.39-2.308 6.552zm-343.419 9.698c-1-2.081-1.969-4.18-2.889-6.293l6.23-2.728a170.28 170.28 0 0 0 2.791 6.052l-6.132 2.97zm331.784 15.46-5.955-3.308a148.38 148.38 0 0 0 3.147-5.906l6.068 3.082a158.347 158.347 0 0 1-3.26 6.133zM32.953 292.29a155.288 155.288 0 0 1-3.76-5.81l5.777-3.583a207.031 207.031 0 0 0 3.631 5.6l-5.648 3.793zm302.67 14.605-5.373-4.18a149.09 149.09 0 0 0 4.002-5.358l5.535 3.97a178.33 178.33 0 0 1-4.163 5.568zm-285.628 7.213a175.887 175.887 0 0 1-4.551-5.228l5.213-4.374a188.493 188.493 0 0 0 4.39 5.035l-5.052 4.567zm267.022 13.33-4.697-4.938a163.305 163.305 0 0 0 4.761-4.696l4.874 4.76c-1.614 1.663-3.276 3.277-4.938 4.875zm-247.06 5.859a234.672 234.672 0 0 1-5.244-4.535l4.535-5.067a184.935 184.935 0 0 0 5.067 4.357l-4.357 5.245zm225.547 11.62-3.873-5.6a158.15 158.15 0 0 0 5.407-3.906l4.099 5.438a199.411 199.411 0 0 1-5.633 4.067zm-203.033 4.518a198.978 198.978 0 0 1-5.842-3.728l3.76-5.665a223.684 223.684 0 0 0 5.648 3.6l-3.566 5.793zm179.165 9.505-3.002-6.116a205.89 205.89 0 0 0 5.94-3.05l3.21 6.003a220.844 220.844 0 0 1-6.148 3.163zm-154.555 3.244c-2.13-.92-4.244-1.872-6.326-2.856l2.905-6.15a168.87 168.87 0 0 0 6.1 2.744l-2.679 6.262zm128.83 6.972-2.032-6.488a206.336 206.336 0 0 0 6.31-2.098l2.275 6.407c-2.163.775-4.357 1.5-6.552 2.179zm-102.621 2.033a226.649 226.649 0 0 1-6.682-1.888l1.985-6.52c2.13.646 4.26 1.259 6.423 1.824l-1.726 6.584zm75.607 4.18-1.017-6.73c2.195-.339 4.39-.71 6.584-1.13l1.26 6.698c-2.26.42-4.536.807-6.827 1.162zm-48.382.887c-2.308-.258-4.6-.548-6.875-.887l1-6.746c2.195.339 4.406.63 6.617.872l-.742 6.761zm20.882 1.162-.129-6.81c2.324 0 4.503-.032 6.665-.113l.258 6.794c-2.259.097-4.518.13-6.794.13z" fill="#293172" mask="url(#b)"/></g><path d="m311.977 17.142-.468-6.762c2.276-.161 4.584-.274 6.891-.355l.21 6.778c-2.21.065-4.438.178-6.633.339zm33.18.92c-1.807-.226-3.63-.42-5.454-.597l-1.114-.097.549-6.762-.307 3.373.355-3.373 1.162.113c1.888.177 3.777.387 5.649.613l-.84 6.73zm-59.42 3.05-1.55-6.6a185.95 185.95 0 0 1 6.762-1.437l1.275 6.649c-2.178.42-4.34.888-6.487 1.388zm85.435 2.275c-2.13-.613-4.26-1.178-6.423-1.71l1.614-6.585c2.243.55 4.47 1.13 6.681 1.776l-1.872 6.52zM260.481 29.23l-2.582-6.277c2.114-.872 4.26-1.711 6.423-2.502l2.34 6.375a158.09 158.09 0 0 0-6.181 2.404zm135.608 3.438a205.664 205.664 0 0 0-6.1-2.695l2.615-6.246c2.13.888 4.244 1.824 6.342 2.792l-2.857 6.149zm-159.25 8.601-3.551-5.777a220.949 220.949 0 0 1 5.955-3.502l3.324 5.923a156.205 156.205 0 0 0-5.729 3.356zm182.44 4.39a183.09 183.09 0 0 0-5.599-3.583l3.534-5.777a198.18 198.18 0 0 1 5.826 3.728l-3.76 5.632zm-203.856 11.28-4.422-5.131a174.046 174.046 0 0 1 5.326-4.406l4.212 5.31a182.184 182.184 0 0 0-5.116 4.228zm224.82 5.084a183.544 183.544 0 0 0-5.002-4.39l4.373-5.18a197.692 197.692 0 0 1 5.196 4.551l-4.567 5.02zM196.767 75.836l-5.196-4.373a175.139 175.139 0 0 1 4.567-5.197l5.003 4.568a161.605 161.605 0 0 0-4.374 5.002zm261.745 5.487a182.539 182.539 0 0 0-4.293-5.067l5.1-4.47a196.654 196.654 0 0 1 4.454 5.26l-5.261 4.277zM181.323 97.461l-5.81-3.485a199.193 199.193 0 0 1 3.68-5.875l5.664 3.712a166.356 166.356 0 0 0-3.534 5.648zm292.39 5.681a166.057 166.057 0 0 0-3.485-5.664l5.697-3.664a168.553 168.553 0 0 1 3.615 5.874l-5.826 3.454zM169.527 121.25l-6.294-2.518c.856-2.146 1.76-4.276 2.695-6.374l6.197 2.776a157.965 157.965 0 0 0-2.598 6.116zm315.953 5.697a168.683 168.683 0 0 0-2.599-6.1l6.181-2.776a155.92 155.92 0 0 1 2.711 6.342l-6.293 2.534zm-323.844 19.656-6.617-1.5c.5-2.26 1.065-4.487 1.662-6.714l6.552 1.759a144.897 144.897 0 0 0-1.597 6.455zm331.896 5.648a143.96 143.96 0 0 0-1.646-6.423l6.536-1.807c.614 2.21 1.178 4.438 1.711 6.665l-6.6 1.565zm-335.786 20.625-6.762-.468c.162-2.308.372-4.6.614-6.875l6.745.726a179.838 179.838 0 0 0-.597 6.617zm339.918 5.616c-.178-2.21-.387-4.422-.646-6.617l6.73-.79c.274 2.275.5 4.567.678 6.874l-6.762.533zm-347.131 6.826v-.129c0-2.259.048-4.518.129-6.778l6.778.259a174.96 174.96 0 0 0-.113 6.52l-6.794.128zm354.022 19.818-6.794-.048.016-.436c.161-2.082.258-4.148.339-6.213l6.778.226a218.464 218.464 0 0 1-.34 6.471zm-351.892 7.698c-.355-2.26-.662-4.551-.92-6.843l6.73-.774a174.6 174.6 0 0 0 .887 6.584l-6.697 1.033zm347.76 20.027-6.6-1.517c.484-2.146.936-4.308 1.356-6.503l6.665 1.259a178.975 178.975 0 0 1-1.42 6.761zm-341.482 6.843c-.694-2.179-1.34-4.39-1.953-6.6l6.552-1.808a170.08 170.08 0 0 0 1.872 6.375l-6.471 2.033zm333.204 19.511-6.294-2.534c.839-2.05 1.614-4.115 2.372-6.213l6.375 2.292a171.63 171.63 0 0 1-2.453 6.455zm-322.94 6.1a170.044 170.044 0 0 1-2.922-6.261l6.197-2.744c.904 2.017 1.84 4.018 2.808 6.003l-6.084 3.002zm310.594 18.64-5.81-3.502a184.115 184.115 0 0 0 3.325-5.762l5.938 3.26a181.414 181.414 0 0 1-3.453 6.004zm-296.619 5.132a197.108 197.108 0 0 1-3.825-5.746l5.73-3.647a182.815 182.815 0 0 0 3.679 5.536l-5.584 3.857zm280.497 17.332-5.18-4.373a183.053 183.053 0 0 0 4.195-5.165l5.342 4.164a175.74 175.74 0 0 1-4.357 5.374zm-263.116 4.115a174.652 174.652 0 0 1-4.648-5.116l5.116-4.454a183.456 183.456 0 0 0 4.47 4.922l-4.938 4.648zm243.637 15.493-4.406-5.148a182.85 182.85 0 0 0 4.955-4.422l4.615 4.954a154.998 154.998 0 0 1-5.164 4.616zm-223.27 3.13a153.772 153.772 0 0 1-5.343-4.373l4.374-5.164a183.627 183.627 0 0 0 5.164 4.212l-4.196 5.326zm200.951 13.12-3.55-5.777a183.09 183.09 0 0 0 5.6-3.582l3.76 5.632a221.35 221.35 0 0 1-5.81 3.728zm-177.987 2.244a180.376 180.376 0 0 1-5.955-3.518l3.55-5.777a184.147 184.147 0 0 0 5.73 3.389l-3.325 5.906zm153.36 10.232-2.582-6.278c2.05-.84 4.083-1.71 6.084-2.63l2.825 6.164a182.458 182.458 0 0 1-6.327 2.744zm-128.314 1.452a205.632 205.632 0 0 1-6.44-2.566l2.631-6.245c2.05.855 4.1 1.678 6.197 2.453l-2.388 6.358zm101.977 6.923-1.533-6.6c2.162-.5 4.309-1.05 6.439-1.63l1.791 6.536a156.31 156.31 0 0 1-6.697 1.694zm-75.446.743a184.87 184.87 0 0 1-6.73-1.517l1.63-6.585c2.147.533 4.31 1.017 6.472 1.469l-1.372 6.633zm48.124 3.324-.468-6.762c2.211-.161 4.422-.355 6.617-.58l.726 6.729c-2.276.258-4.567.452-6.875.613zm-20.737.178a166.647 166.647 0 0 1-6.891-.484l.597-6.746c2.227.194 4.438.339 6.632.452l-.338 6.778z" fill="#2D57A4"/><path d="M343.952 8.395a221.696 221.696 0 0 0-6.665-.484l.371-6.794c2.308.129 4.616.29 6.907.5l-.613 6.778zm-33.358.032-.629-6.778c2.292-.21 4.6-.387 6.907-.516l.387 6.794c-2.227.13-4.454.29-6.665.5zm59.68 4.341a172.567 172.567 0 0 0-6.504-1.452l1.355-6.681c2.276.468 4.535.984 6.762 1.533l-1.614 6.6zm-86 .081-1.615-6.6a185.854 185.854 0 0 1 6.746-1.533l1.388 6.665c-2.195.451-4.357.952-6.52 1.468zm111.417 8.166a208.145 208.145 0 0 0-6.246-2.42l2.34-6.391c2.179.807 4.342 1.646 6.472 2.517l-2.566 6.294zm-136.77.113-2.583-6.294c2.13-.871 4.277-1.71 6.44-2.501l2.355 6.39a170.27 170.27 0 0 0-6.213 2.405zm160.654 11.83a146.303 146.303 0 0 0-5.81-3.325l3.277-5.971a200.064 200.064 0 0 1 6.02 3.437l-3.487 5.858zm-184.49.128-3.487-5.842a156.26 156.26 0 0 1 6.004-3.437l3.26 5.971a171.69 171.69 0 0 0-5.778 3.308zm206.357 15.186a184.214 184.214 0 0 0-5.244-4.131l4.099-5.422a155.446 155.446 0 0 1 5.454 4.292l-4.309 5.261zm-228.193.162-4.309-5.277a197.806 197.806 0 0 1 5.439-4.277l4.115 5.422a159.2 159.2 0 0 0-5.245 4.132zm247.575 18.204c-1.5-1.646-3.034-3.26-4.583-4.858l4.858-4.76a201.27 201.27 0 0 1 4.76 5.034l-5.035 4.584zm-266.924.177-5.036-4.567c1.55-1.71 3.131-3.389 4.745-5.051l4.874 4.76a185.446 185.446 0 0 0-4.583 4.858zm283.4 20.818a184.188 184.188 0 0 0-3.824-5.47l5.503-4.003a198.539 198.539 0 0 1 3.97 5.68l-5.649 3.793zm-299.862.226-5.649-3.792a199.308 199.308 0 0 1 3.97-5.697l5.503 4.002a184.929 184.929 0 0 0-3.824 5.487zm313.063 22.949a158.04 158.04 0 0 0-2.97-5.971l6.037-3.147a184.36 184.36 0 0 1 3.082 6.197l-6.149 2.92zm-326.248.274-6.149-2.921a185.115 185.115 0 0 1 3.083-6.213l6.035 3.13a207.198 207.198 0 0 0-2.97 6.004zm335.915 24.61a208.78 208.78 0 0 0-2.066-6.358l6.423-2.227a185.19 185.19 0 0 1 2.147 6.6l-6.504 1.986zm-345.534.291-6.52-1.969a209.18 209.18 0 0 1 2.13-6.584l6.44 2.21a170.805 170.805 0 0 0-2.05 6.343zm351.392 25.74c-.323-2.21-.694-4.405-1.097-6.584l6.697-1.243c.42 2.26.807 4.535 1.146 6.827l-6.746 1zm-357.217.307-6.73-.984c.339-2.292.71-4.567 1.13-6.843l6.697 1.243a174.96 174.96 0 0 0-1.097 6.584zm359.202 26.321c0-2.243-.048-4.47-.129-6.68l6.81-.259a197.4 197.4 0 0 1 .13 6.923l-6.81.016zm-361.139.307h-6.81c0-2.308.048-4.615.129-6.923l6.794.242c-.08 2.227-.113 4.454-.113 6.681zm-6.262 14.46a195.82 195.82 0 0 1-.403-6.907l6.81-.275c.081 2.227.21 4.454.371 6.665l-6.778.517zm372.259 12.846-6.746-.985c.323-2.194.597-4.405.84-6.616l6.761.726a194.962 194.962 0 0 1-.855 6.875zm-368.143 14.54c-.5-2.243-.985-4.502-1.404-6.778l6.697-1.259c.403 2.195.855 4.374 1.356 6.536l-6.65 1.501zm362.14 12.491-6.52-1.953c.645-2.13 1.242-4.276 1.807-6.439l6.584 1.727c-.58 2.243-1.21 4.47-1.872 6.665zm-354.023 13.992c-.84-2.146-1.63-4.309-2.388-6.504l6.423-2.227c.742 2.098 1.5 4.196 2.307 6.262l-6.342 2.469zm344.081 11.894-6.164-2.905a171.77 171.77 0 0 0 2.743-6.1l6.262 2.662a160.946 160.946 0 0 1-2.84 6.343zm-332.139 13.088a156.797 156.797 0 0 1-3.324-6.068l6.036-3.163a185.888 185.888 0 0 0 3.195 5.858l-5.907 3.373zm318.486 11.038-5.664-3.776a174.96 174.96 0 0 0 3.615-5.632l5.794 3.566a188.05 188.05 0 0 1-3.745 5.842zm-303.01 11.926a225.218 225.218 0 0 1-4.179-5.519l5.503-4.018a164.553 164.553 0 0 0 4.035 5.325l-5.358 4.212zm285.985 9.91-5.052-4.568a188.495 188.495 0 0 0 4.39-5.035l5.213 4.39a198.366 198.366 0 0 1-4.551 5.212zm-267.296 10.52a199.94 199.94 0 0 1-4.955-4.841l4.858-4.777a186.92 186.92 0 0 0 4.777 4.68l-4.68 4.938zm247.252 8.602-4.325-5.261a187.47 187.47 0 0 0 5.068-4.341l4.518 5.1a198.514 198.514 0 0 1-5.26 4.502zm-225.772 8.892a225.057 225.057 0 0 1-5.616-4.067l4.115-5.438a193.315 193.315 0 0 0 5.406 3.937l-3.905 5.568zm203.146 7.068-3.501-5.842a184.063 184.063 0 0 0 5.648-3.534l3.712 5.697a198.388 198.388 0 0 1-5.859 3.68zm-179.31 7.085a171.482 171.482 0 0 1-6.165-3.211l3.26-5.972a187.851 187.851 0 0 0 5.939 3.099l-3.034 6.084zm154.587 5.358-2.598-6.294c2.05-.855 4.083-1.743 6.1-2.663l2.84 6.197a221.28 221.28 0 0 1-6.342 2.76zm-128.912 5.1a150.3 150.3 0 0 1-6.568-2.26l2.34-6.39c2.082.758 4.196 1.484 6.326 2.178l-2.098 6.472zm102.59 3.55-1.63-6.617a171.686 171.686 0 0 0 6.44-1.726l1.888 6.535a185.357 185.357 0 0 1-6.697 1.808zm-75.655 2.97a195.837 195.837 0 0 1-6.81-1.243l1.355-6.665c2.179.435 4.358.839 6.569 1.194l-1.114 6.713zm48.35 1.662-.646-6.778a152.29 152.29 0 0 0 6.65-.759l.887 6.762c-2.292.29-4.583.549-6.891.775zm-20.754.807a197.97 197.97 0 0 1-6.94-.226l.356-6.795c2.227.113 4.438.178 6.681.21l-.097 6.81z" fill="#4372B7"/><path d="m483.749 247.662-298.12 25.967c11.829 19.753 27.5 37.02 46.01 50.625l217.51-18.946c15.137-16.3 27.03-35.843 34.6-57.646" fill="#A5BFE4"/><path d="m272.881 294.995 3.066 1.97c-1.468 2.388-4.018 4.05-7.294 4.324-5.697.468-9.941-3.582-10.377-8.73-.42-5.165 3.099-9.86 8.795-10.345 3.277-.258 6.068.984 7.908 3.034l-2.711 2.485c-1.146-1.388-2.857-2.26-4.906-2.082-3.405.275-5.616 3.131-5.326 6.585.29 3.453 2.938 5.906 6.343 5.616 2.05-.161 3.598-1.307 4.502-2.857m9.959 2.361c1.485-.129 2.518-.92 3.082-2l-.161-1.824-3.05.774c-1.34.34-1.856.952-1.791 1.76.064.87.807 1.387 1.92 1.29m-5.164-.871c-.162-1.953 1.242-3.55 3.986-4.244l3.905-1-.016-.34c-.113-1.372-1.226-2.146-2.711-2.033-1.275.113-2.195.79-2.808 1.791l-2.55-1.63c1.017-1.694 2.84-2.824 5.213-3.018 3.76-.322 5.89 1.76 6.116 4.616l.71 8.408-3.276.274-.113-1.275c-.726 1.082-2.227 1.856-3.744 1.985-2.598.21-4.502-1.13-4.712-3.534m14.498-10.75 3.276-.274.097 1.291c.791-.952 1.84-1.71 3.309-1.84a3.61 3.61 0 0 1 1.145.097l.275 3.212a6.07 6.07 0 0 0-1.469-.049c-1.598.13-2.55 1.081-2.97 1.953l.695 8.327-3.276.275-1.082-12.992zm10.463-.873 3.276-.274.08 1.033c.823-.952 1.985-1.727 3.712-1.856 2.808-.242 5.213 1.5 5.536 5.342l.629 7.73-3.292.274-.63-7.6c-.145-1.728-1.21-2.728-2.808-2.6-1.646.146-2.436 1.324-2.856 2.18l.71 8.488-3.276.275-1.081-12.992zm18.799 3.26 5.971-.5c-.161-1.307-1.226-2.534-3.05-2.389-1.678.146-2.695 1.162-2.921 2.89m4.486 8.391c-4.615.387-7.488-2.614-7.794-6.407-.323-3.84 1.84-7.197 6.084-7.552 3.615-.307 6.18 1.936 6.471 5.341.049.726.016 1.404-.064 1.84l-9.086.759c.516 2.404 2.082 3.26 4.115 3.082 1.42-.113 2.598-.84 3.228-1.824l2.501 1.663c-1.081 1.726-3.002 2.888-5.455 3.098m8.555-11.345-2.42.194-.243-2.938 2.421-.193-.274-3.244 3.292-.274.274 3.243 3.97-.338.242 2.937-3.97.339.452 5.309c.113 1.436.936 1.937 2.227 1.84.904-.08 1.485-.226 1.905-.452l.242 2.856c-.63.34-1.388.533-2.47.63-3.243.258-4.938-1.437-5.212-4.6l-.436-5.31zm23.919 5.529c1.468-.13 2.63-.84 3.405-2.098l-.355-4.228c-.969-1.114-2.227-1.63-3.696-1.501-2.227.177-3.502 1.953-3.308 4.212.177 2.275 1.743 3.792 3.954 3.615m-1.372-10.877c1.743-.145 3.05.29 4.147 1.21l-.613-7.375 3.292-.274 1.614 19.317-3.292.274-.097-1.033c-.92 1.098-2.13 1.743-3.89 1.889-4.098.339-6.858-2.68-7.18-6.456-.307-3.792 1.92-7.213 6.019-7.552m14.203 4.154 5.971-.5c-.161-1.308-1.226-2.534-3.05-2.389-1.678.145-2.695 1.162-2.921 2.889m4.486 8.392c-4.615.387-7.488-2.615-7.794-6.407-.323-3.841 1.84-7.198 6.084-7.553 3.615-.307 6.18 1.937 6.471 5.342.049.726 0 1.404-.064 1.84l-9.086.758c.516 2.405 2.082 3.26 4.115 3.082 1.42-.113 2.598-.839 3.228-1.823l2.501 1.662c-1.081 1.727-3.002 2.905-5.455 3.099m18.109-10.639.339 4.116c.984 1.145 2.275 1.678 3.744 1.565 2.21-.178 3.518-1.953 3.324-4.228-.177-2.26-1.759-3.793-3.986-3.6-1.517.114-2.727.889-3.421 2.147m4.81 8.731c-1.792.145-3.1-.307-4.18-1.243l.08 1.065-3.276.275-1.598-19.318 3.26-.274.63 7.391c.92-1.08 2.13-1.759 3.905-1.904 4.131-.339 6.859 2.663 7.182 6.455.322 3.793-1.889 7.214-6.004 7.553m18.891-8.629c-.193-2.26-1.904-3.776-3.986-3.615-2.162.194-3.63 1.969-3.437 4.228.194 2.276 1.92 3.793 4.099 3.615 2.082-.177 3.502-1.985 3.324-4.228m3.406-.274c.322 3.889-2.308 7.246-6.536 7.585-4.212.355-7.36-2.518-7.698-6.407-.323-3.89 2.308-7.246 6.536-7.601 4.228-.355 7.375 2.533 7.698 6.423m2.449-6.748 3.276-.274.097 1.29c.791-.951 1.84-1.71 3.309-1.839a3.61 3.61 0 0 1 1.145.097l.275 3.212a6.07 6.07 0 0 0-1.469-.049c-1.598.13-2.55 1.081-2.97 1.953l.695 8.327-3.276.258-1.082-12.975zm16.918 9.07c1.469-.13 2.63-.84 3.405-2.098l-.355-4.228c-.968-1.114-2.227-1.63-3.696-1.501-2.227.177-3.502 1.953-3.308 4.212.178 2.275 1.743 3.792 3.954 3.615M438.923 273c1.76-.145 3.066.274 4.148 1.21l-.614-7.375 3.293-.274 1.613 19.317-3.292.274-.097-1.032c-.92 1.097-2.13 1.742-3.889 1.888-4.099.339-6.859-2.68-7.181-6.456-.307-3.792 1.92-7.213 6.02-7.552" fill="#FEFEFE"/><path d="M248.885 287.735 250 300.403a1.63 1.63 0 0 1-1.469 1.776l-8.133.71-1.404-15.913 8.117-.726a1.632 1.632 0 0 1 1.775 1.485" fill="#E1000F"/><path d="m220.755 303.103-1.114-12.668a1.63 1.63 0 0 1 1.47-1.775l8.133-.71 1.404 15.912-8.118.726a1.632 1.632 0 0 1-1.775-1.485" fill="#000091"/><path fill="#FFF" d="m229.244 287.946 9.747-.855 1.42 15.912-9.763.856z"/></g></svg>
